<svg width="132" height="30" viewBox="0 0 132 30" fill="none" xmlns="http://www.w3.org/2000/svg">
<g clip-path="url(#clip0_104_709)">
<path d="M15.41 20.09L10.83 15.5L15.41 10.91L14 9.5L8 15.5L14 21.5L15.41 20.09Z" fill="black"/>
</g>
<path d="M38.664 24V9.84H33.096V7.2H47.352V9.84H41.784V24H38.664ZM49.6935 24V7.2H56.6055C58.0935 7.2 59.3655 7.44 60.4215 7.92C61.4935 8.4 62.3175 9.088 62.8935 9.984C63.4695 10.88 63.7575 11.944 63.7575 13.176C63.7575 14.408 63.4695 15.472 62.8935 16.368C62.3175 17.248 61.4935 17.928 60.4215 18.408C59.3655 18.872 58.0935 19.104 56.6055 19.104H51.4215L52.8135 17.688V24H49.6935ZM60.6855 24L56.4375 17.904H59.7735L64.0455 24H60.6855ZM52.8135 18.024L51.4215 16.536H56.4615C57.8375 16.536 58.8695 16.24 59.5575 15.648C60.2615 15.056 60.6135 14.232 60.6135 13.176C60.6135 12.104 60.2615 11.28 59.5575 10.704C58.8695 10.128 57.8375 9.84 56.4615 9.84H51.4215L52.8135 8.304V18.024ZM75.1202 24.24C73.8082 24.24 72.6002 24.024 71.4962 23.592C70.3922 23.16 69.4322 22.56 68.6162 21.792C67.8002 21.008 67.1682 20.088 66.7202 19.032C66.2722 17.976 66.0482 16.832 66.0482 15.6C66.0482 14.352 66.2722 13.2 66.7202 12.144C67.1682 11.088 67.8002 10.176 68.6162 9.408C69.4482 8.624 70.4242 8.024 71.5442 7.608C72.6642 7.176 73.8882 6.96 75.2162 6.96C76.1442 6.96 76.9682 7.016 77.6882 7.128C78.4082 7.24 79.0802 7.296 79.7042 7.296C80.3762 7.296 80.8962 7.16 81.2642 6.888C81.6482 6.6 81.8402 6.184 81.8402 5.64C81.8402 5.336 81.7922 5.064 81.6962 4.824C81.6002 4.584 81.4882 4.36 81.3602 4.152L83.1842 3.48C83.4082 3.784 83.5842 4.128 83.7122 4.512C83.8402 4.896 83.9042 5.304 83.9042 5.736C83.9042 6.824 83.5202 7.672 82.7522 8.28C82.0002 8.872 80.9442 9.168 79.5842 9.168C79.0562 9.168 78.5122 9.136 77.9522 9.072C77.3922 9.008 76.8642 8.944 76.3682 8.88L80.1842 8.424C80.9682 8.872 81.6562 9.456 82.2482 10.176C82.8402 10.896 83.3042 11.72 83.6402 12.648C83.9762 13.56 84.1442 14.544 84.1442 15.6C84.1442 16.848 83.9202 18 83.4722 19.056C83.0242 20.112 82.3922 21.024 81.5762 21.792C80.7602 22.56 79.8002 23.16 78.6962 23.592C77.6082 24.024 76.4162 24.24 75.1202 24.24ZM75.0962 21.504C75.9442 21.504 76.7282 21.36 77.4482 21.072C78.1682 20.784 78.7922 20.376 79.3202 19.848C79.8482 19.304 80.2562 18.672 80.5442 17.952C80.8482 17.232 81.0002 16.448 81.0002 15.6C81.0002 14.752 80.8482 13.968 80.5442 13.248C80.2562 12.528 79.8482 11.904 79.3202 11.376C78.7922 10.832 78.1682 10.416 77.4482 10.128C76.7282 9.84 75.9442 9.696 75.0962 9.696C74.2482 9.696 73.4642 9.84 72.7442 10.128C72.0242 10.416 71.4002 10.832 70.8722 11.376C70.3442 11.904 69.9282 12.528 69.6242 13.248C69.3362 13.952 69.1922 14.736 69.1922 15.6C69.1922 16.448 69.3362 17.232 69.6242 17.952C69.9282 18.672 70.3442 19.304 70.8722 19.848C71.4002 20.376 72.0242 20.784 72.7442 21.072C73.4642 21.36 74.2482 21.504 75.0962 21.504ZM75.6962 6.072L74.7122 4.968C75.1762 4.744 75.5042 4.512 75.6962 4.272C75.9042 4.016 76.0082 3.736 76.0082 3.432C76.0082 3.112 75.8962 2.856 75.6722 2.664C75.4482 2.472 75.1602 2.376 74.8082 2.376C74.3122 2.376 73.8322 2.528 73.3682 2.832L72.7202 1.512C73.0562 1.272 73.4322 1.088 73.8482 0.959999C74.2642 0.831999 74.6882 0.767999 75.1202 0.767999C75.9042 0.767999 76.5362 0.991999 77.0162 1.44C77.5122 1.872 77.7602 2.448 77.7602 3.168C77.7602 3.824 77.5922 4.392 77.2562 4.872C76.9202 5.352 76.4002 5.752 75.6962 6.072ZM94.0841 24V7.2H97.2041V21.36H105.988V24H94.0841ZM106.099 24L113.659 7.2H116.731L124.315 24H121.051L114.547 8.856H115.795L109.315 24H106.099ZM109.579 20.112L110.419 17.664H119.491L120.331 20.112H109.579ZM115.195 28.872C114.795 28.872 114.451 28.744 114.163 28.488C113.891 28.232 113.755 27.888 113.755 27.456C113.755 27.024 113.891 26.672 114.163 26.4C114.451 26.128 114.795 25.992 115.195 25.992C115.595 25.992 115.931 26.128 116.203 26.4C116.491 26.672 116.635 27.024 116.635 27.456C116.635 27.888 116.491 28.232 116.203 28.488C115.931 28.744 115.595 28.872 115.195 28.872ZM126.451 24V7.2H129.571V24H126.451Z" fill="black"/>
<defs>
<clipPath id="clip0_104_709">
<rect width="24" height="24" fill="white" transform="translate(0 3.5)"/>
</clipPath>
</defs>
</svg>
