<svg width="732" height="54" viewBox="0 0 732 54" fill="none" xmlns="http://www.w3.org/2000/svg">
<path d="M3.36909 13V3.9H7.50309C8.49109 3.9 9.36209 4.09067 10.1161 4.472C10.8701 4.84467 11.4594 5.369 11.8841 6.045C12.3088 6.721 12.5211 7.52267 12.5211 8.45C12.5211 9.36867 12.3088 10.1703 11.8841 10.855C11.4594 11.531 10.8701 12.0597 10.1161 12.441C9.36209 12.8137 8.49109 13 7.50309 13H3.36909ZM5.47509 11.271H7.39909C8.00576 11.271 8.53009 11.1583 8.97209 10.933C9.42276 10.699 9.76943 10.3697 10.0121 9.945C10.2634 9.52033 10.3891 9.022 10.3891 8.45C10.3891 7.86933 10.2634 7.371 10.0121 6.955C9.76943 6.53033 9.42276 6.20533 8.97209 5.98C8.53009 5.746 8.00576 5.629 7.39909 5.629H5.47509V11.271ZM2.14709 9.074V7.67H7.76309V9.074H2.14709ZM17.2904 13.104C16.545 13.104 15.882 12.948 15.3014 12.636C14.7294 12.324 14.2744 11.8993 13.9364 11.362C13.607 10.816 13.4424 10.1963 13.4424 9.503C13.4424 8.801 13.607 8.18133 13.9364 7.644C14.2744 7.098 14.7337 6.67333 15.3144 6.37C15.895 6.058 16.558 5.902 17.3034 5.902C17.5374 5.902 17.7367 5.91067 17.9014 5.928C18.0747 5.94533 18.235 5.967 18.3824 5.993C18.5384 6.01033 18.6944 6.019 18.8504 6.019C19.1364 6.019 19.3444 5.941 19.4744 5.785C19.613 5.62033 19.6824 5.41667 19.6824 5.174C19.6824 5.018 19.6564 4.875 19.6044 4.745C19.5524 4.615 19.4874 4.498 19.4094 4.394L20.5924 3.952C20.7224 4.134 20.8264 4.33333 20.9044 4.55C20.991 4.76667 21.0344 5.00067 21.0344 5.252C21.0344 5.65067 20.9347 6.00167 20.7354 6.305C20.5447 6.60833 20.2717 6.84233 19.9164 7.007C19.5697 7.163 19.1624 7.241 18.6944 7.241C18.495 7.241 18.3 7.23233 18.1094 7.215C17.9187 7.189 17.7324 7.15867 17.5504 7.124L18.8634 6.201C19.5567 6.46967 20.107 6.89433 20.5144 7.475C20.9217 8.047 21.1254 8.723 21.1254 9.503C21.1254 10.1963 20.9607 10.816 20.6314 11.362C20.302 11.8993 19.847 12.324 19.2664 12.636C18.6857 12.948 18.027 13.104 17.2904 13.104ZM17.2904 11.44C17.6197 11.44 17.9187 11.362 18.1874 11.206C18.456 11.05 18.6684 10.829 18.8244 10.543C18.989 10.2483 19.0714 9.90167 19.0714 9.503C19.0714 9.09567 18.9934 8.749 18.8374 8.463C18.6814 8.177 18.469 7.956 18.2004 7.8C17.9317 7.644 17.6284 7.566 17.2904 7.566C16.9524 7.566 16.649 7.644 16.3804 7.8C16.1117 7.956 15.895 8.177 15.7304 8.463C15.5744 8.749 15.4964 9.09567 15.4964 9.503C15.4964 9.90167 15.5744 10.2483 15.7304 10.543C15.895 10.829 16.1117 11.05 16.3804 11.206C16.649 11.362 16.9524 11.44 17.2904 11.44ZM26.7319 5.902C27.2866 5.902 27.7806 6.01467 28.2139 6.24C28.6559 6.45667 29.0026 6.79467 29.2539 7.254C29.5053 7.70467 29.6309 8.28533 29.6309 8.996V13H27.6029V9.308C27.6029 8.74467 27.4773 8.32867 27.2259 8.06C26.9833 7.79133 26.6366 7.657 26.1859 7.657C25.8653 7.657 25.5749 7.72633 25.3149 7.865C25.0636 7.995 24.8643 8.19867 24.7169 8.476C24.5783 8.75333 24.5089 9.10867 24.5089 9.542V13H22.4809V6.006H24.4179V7.943L24.0539 7.358C24.3053 6.89 24.6649 6.53033 25.1329 6.279C25.6009 6.02767 26.1339 5.902 26.7319 5.902ZM41.5338 3.9H43.6398V13H41.5338V3.9ZM37.3998 13H35.2938V3.9H37.3998V13ZM41.6898 9.269H37.2438V7.488H41.6898V9.269ZM49.9399 13V11.635L49.8099 11.336V8.892C49.8099 8.45867 49.6755 8.12067 49.4069 7.878C49.1469 7.63533 48.7439 7.514 48.1979 7.514C47.8252 7.514 47.4569 7.57467 47.0929 7.696C46.7375 7.80867 46.4342 7.96467 46.1829 8.164L45.4549 6.747C45.8362 6.47833 46.2955 6.27033 46.8329 6.123C47.3702 5.97567 47.9162 5.902 48.4709 5.902C49.5369 5.902 50.3645 6.15333 50.9539 6.656C51.5432 7.15867 51.8379 7.943 51.8379 9.009V13H49.9399ZM47.8079 13.104C47.2619 13.104 46.7939 13.013 46.4039 12.831C46.0139 12.6403 45.7149 12.3847 45.5069 12.064C45.2989 11.7433 45.1949 11.3837 45.1949 10.985C45.1949 10.569 45.2945 10.205 45.4939 9.893C45.7019 9.581 46.0269 9.33833 46.4689 9.165C46.9109 8.983 47.4872 8.892 48.1979 8.892H50.0569V10.075H48.4189C47.9422 10.075 47.6129 10.153 47.4309 10.309C47.2575 10.465 47.1709 10.66 47.1709 10.894C47.1709 11.154 47.2705 11.362 47.4699 11.518C47.6779 11.6653 47.9595 11.739 48.3149 11.739C48.6529 11.739 48.9562 11.661 49.2249 11.505C49.4935 11.3403 49.6885 11.102 49.8099 10.79L50.1219 11.726C49.9745 12.1767 49.7059 12.519 49.3159 12.753C48.9259 12.987 48.4232 13.104 47.8079 13.104ZM48.2759 5.109L45.9229 3.237H48.1069L49.8619 5.109H48.2759ZM57.9243 5.902C58.479 5.902 58.973 6.01467 59.4063 6.24C59.8483 6.45667 60.195 6.79467 60.4463 7.254C60.6976 7.70467 60.8233 8.28533 60.8233 8.996V13H58.7953V9.308C58.7953 8.74467 58.6696 8.32867 58.4183 8.06C58.1756 7.79133 57.829 7.657 57.3783 7.657C57.0576 7.657 56.7673 7.72633 56.5073 7.865C56.256 7.995 56.0566 8.19867 55.9093 8.476C55.7706 8.75333 55.7013 9.10867 55.7013 9.542V13H53.6733V6.006H55.6103V7.943L55.2463 7.358C55.4976 6.89 55.8573 6.53033 56.3253 6.279C56.7933 6.02767 57.3263 5.902 57.9243 5.902ZM66.0014 15.626C65.3427 15.626 64.7057 15.5437 64.0904 15.379C63.4837 15.223 62.9767 14.9847 62.5694 14.664L63.3754 13.208C63.67 13.4507 64.0427 13.6413 64.4934 13.78C64.9527 13.9273 65.4034 14.001 65.8454 14.001C66.5647 14.001 67.0847 13.8407 67.4054 13.52C67.7347 13.1993 67.8994 12.7227 67.8994 12.09V11.037L68.0294 9.282L68.0034 7.514V6.006H69.9274V11.83C69.9274 13.13 69.5894 14.0877 68.9134 14.703C68.2374 15.3183 67.2667 15.626 66.0014 15.626ZM65.6894 12.662C65.0394 12.662 64.45 12.5233 63.9214 12.246C63.4014 11.96 62.981 11.5657 62.6604 11.063C62.3484 10.5517 62.1924 9.958 62.1924 9.282C62.1924 8.59733 62.3484 8.00367 62.6604 7.501C62.981 6.98967 63.4014 6.59533 63.9214 6.318C64.45 6.04067 65.0394 5.902 65.6894 5.902C66.2787 5.902 66.7987 6.02333 67.2494 6.266C67.7 6.5 68.051 6.86833 68.3024 7.371C68.5537 7.865 68.6794 8.502 68.6794 9.282C68.6794 10.0533 68.5537 10.6903 68.3024 11.193C68.051 11.687 67.7 12.0553 67.2494 12.298C66.7987 12.5407 66.2787 12.662 65.6894 12.662ZM66.0924 10.998C66.4477 10.998 66.764 10.9287 67.0414 10.79C67.3187 10.6427 67.5354 10.439 67.6914 10.179C67.8474 9.919 67.9254 9.62 67.9254 9.282C67.9254 8.93533 67.8474 8.63633 67.6914 8.385C67.5354 8.125 67.3187 7.92567 67.0414 7.787C66.764 7.63967 66.4477 7.566 66.0924 7.566C65.737 7.566 65.4207 7.63967 65.1434 7.787C64.866 7.92567 64.645 8.125 64.4804 8.385C64.3244 8.63633 64.2464 8.93533 64.2464 9.282C64.2464 9.62 64.3244 9.919 64.4804 10.179C64.645 10.439 64.866 10.6427 65.1434 10.79C65.4207 10.9287 65.737 10.998 66.0924 10.998ZM14.1538 29V19.9H18.2878C19.2758 19.9 20.1468 20.0907 20.9008 20.472C21.6548 20.8447 22.2441 21.369 22.6688 22.045C23.0934 22.721 23.3058 23.5227 23.3058 24.45C23.3058 25.3687 23.0934 26.1703 22.6688 26.855C22.2441 27.531 21.6548 28.0597 20.9008 28.441C20.1468 28.8137 19.2758 29 18.2878 29H14.1538ZM16.2598 27.271H18.1838C18.7904 27.271 19.3148 27.1583 19.7568 26.933C20.2074 26.699 20.5541 26.3697 20.7968 25.945C21.0481 25.5203 21.1738 25.022 21.1738 24.45C21.1738 23.8693 21.0481 23.371 20.7968 22.955C20.5541 22.5303 20.2074 22.2053 19.7568 21.98C19.3148 21.746 18.7904 21.629 18.1838 21.629H16.2598V27.271ZM12.9318 25.074V23.67H18.5478V25.074H12.9318ZM29.037 29V27.635L28.907 27.336V24.892C28.907 24.4587 28.7727 24.1207 28.504 23.878C28.244 23.6353 27.841 23.514 27.295 23.514C26.9224 23.514 26.554 23.5747 26.19 23.696C25.8347 23.8087 25.5314 23.9647 25.28 24.164L24.552 22.747C24.9334 22.4783 25.3927 22.2703 25.93 22.123C26.4674 21.9757 27.0134 21.902 27.568 21.902C28.634 21.902 29.4617 22.1533 30.051 22.656C30.6404 23.1587 30.935 23.943 30.935 25.009V29H29.037ZM26.905 29.104C26.359 29.104 25.891 29.013 25.501 28.831C25.111 28.6403 24.812 28.3847 24.604 28.064C24.396 27.7433 24.292 27.3837 24.292 26.985C24.292 26.569 24.3917 26.205 24.591 25.893C24.799 25.581 25.124 25.3383 25.566 25.165C26.008 24.983 26.5844 24.892 27.295 24.892H29.154V26.075H27.516C27.0394 26.075 26.71 26.153 26.528 26.309C26.3547 26.465 26.268 26.66 26.268 26.894C26.268 27.154 26.3677 27.362 26.567 27.518C26.775 27.6653 27.0567 27.739 27.412 27.739C27.75 27.739 28.0534 27.661 28.322 27.505C28.5907 27.3403 28.7857 27.102 28.907 26.79L29.219 27.726C29.0717 28.1767 28.803 28.519 28.413 28.753C28.023 28.987 27.5204 29.104 26.905 29.104ZM28.751 21.148C28.5257 21.148 28.3264 21.109 28.153 21.031C27.9797 20.9443 27.8237 20.849 27.685 20.745C27.5464 20.6323 27.4164 20.537 27.295 20.459C27.1737 20.3723 27.0524 20.329 26.931 20.329C26.7577 20.329 26.6147 20.394 26.502 20.524C26.3894 20.6453 26.3244 20.823 26.307 21.057H25.28C25.2974 20.4763 25.4404 20.017 25.709 19.679C25.9777 19.3323 26.3417 19.159 26.801 19.159C27.0264 19.159 27.2257 19.2023 27.399 19.289C27.5724 19.367 27.7284 19.4623 27.867 19.575C28.0144 19.6877 28.1487 19.7873 28.27 19.874C28.3914 19.952 28.5084 19.991 28.621 19.991C28.803 19.991 28.9504 19.9303 29.063 19.809C29.1757 19.679 29.2364 19.5057 29.245 19.289H30.272C30.2634 19.8437 30.1204 20.2943 29.843 20.641C29.5744 20.979 29.2104 21.148 28.751 21.148ZM36.7641 29V19.9H40.8981C41.8861 19.9 42.7571 20.0907 43.5111 20.472C44.2651 20.8447 44.8544 21.369 45.2791 22.045C45.7038 22.721 45.9161 23.5227 45.9161 24.45C45.9161 25.3687 45.7038 26.1703 45.2791 26.855C44.8544 27.531 44.2651 28.0597 43.5111 28.441C42.7571 28.8137 41.8861 29 40.8981 29H36.7641ZM38.8701 27.271H40.7941C41.4008 27.271 41.9251 27.1583 42.3671 26.933C42.8178 26.699 43.1644 26.3697 43.4071 25.945C43.6584 25.5203 43.7841 25.022 43.7841 24.45C43.7841 23.8693 43.6584 23.371 43.4071 22.955C43.1644 22.5303 42.8178 22.2053 42.3671 21.98C41.9251 21.746 41.4008 21.629 40.7941 21.629H38.8701V27.271ZM35.5421 25.074V23.67H41.1581V25.074H35.5421ZM51.6474 29V27.635L51.5174 27.336V24.892C51.5174 24.4587 51.3831 24.1207 51.1144 23.878C50.8544 23.6353 50.4514 23.514 49.9054 23.514C49.5327 23.514 49.1644 23.5747 48.8004 23.696C48.4451 23.8087 48.1417 23.9647 47.8904 24.164L47.1624 22.747C47.5437 22.4783 48.0031 22.2703 48.5404 22.123C49.0777 21.9757 49.6237 21.902 50.1784 21.902C51.2444 21.902 52.0721 22.1533 52.6614 22.656C53.2507 23.1587 53.5454 23.943 53.5454 25.009V29H51.6474ZM49.5154 29.104C48.9694 29.104 48.5014 29.013 48.1114 28.831C47.7214 28.6403 47.4224 28.3847 47.2144 28.064C47.0064 27.7433 46.9024 27.3837 46.9024 26.985C46.9024 26.569 47.0021 26.205 47.2014 25.893C47.4094 25.581 47.7344 25.3383 48.1764 25.165C48.6184 24.983 49.1947 24.892 49.9054 24.892H51.7644V26.075H50.1264C49.6497 26.075 49.3204 26.153 49.1384 26.309C48.9651 26.465 48.8784 26.66 48.8784 26.894C48.8784 27.154 48.9781 27.362 49.1774 27.518C49.3854 27.6653 49.6671 27.739 50.0224 27.739C50.3604 27.739 50.6637 27.661 50.9324 27.505C51.2011 27.3403 51.3961 27.102 51.5174 26.79L51.8294 27.726C51.6821 28.1767 51.4134 28.519 51.0234 28.753C50.6334 28.987 50.1307 29.104 49.5154 29.104ZM50.2304 31.73C49.9791 31.73 49.7667 31.652 49.5934 31.496C49.4201 31.34 49.3334 31.1277 49.3334 30.859C49.3334 30.5903 49.4201 30.3693 49.5934 30.196C49.7667 30.0313 49.9791 29.949 50.2304 29.949C50.4817 29.949 50.6941 30.0313 50.8674 30.196C51.0407 30.3693 51.1274 30.5903 51.1274 30.859C51.1274 31.1277 51.0407 31.34 50.8674 31.496C50.6941 31.652 50.4817 31.73 50.2304 31.73ZM50.3864 21.213C49.7104 21.213 49.1471 21.0353 48.6964 20.68C48.2544 20.3247 48.0204 19.8437 47.9944 19.237H49.2684C49.2857 19.523 49.3984 19.7483 49.6064 19.913C49.8231 20.0777 50.0831 20.16 50.3864 20.16C50.6897 20.16 50.9497 20.0777 51.1664 19.913C51.3831 19.7483 51.4957 19.523 51.5044 19.237H52.7784C52.7524 19.8437 52.5141 20.3247 52.0634 20.68C51.6214 21.0353 51.0624 21.213 50.3864 21.213ZM58.2408 29.104C57.4175 29.104 56.7762 28.896 56.3168 28.48C55.8575 28.0553 55.6278 27.427 55.6278 26.595V20.459H57.6558V26.569C57.6558 26.8637 57.7338 27.0933 57.8898 27.258C58.0458 27.414 58.2582 27.492 58.5268 27.492C58.8475 27.492 59.1205 27.4053 59.3458 27.232L59.8918 28.662C59.6838 28.8093 59.4325 28.922 59.1378 29C58.8518 29.0693 58.5528 29.104 58.2408 29.104ZM54.5488 23.722V22.162H59.3978V23.722H54.5488Z" fill="black"/>
<path d="M157.449 13V3.9H161.583C162.571 3.9 163.442 4.09067 164.196 4.472C164.95 4.84467 165.54 5.369 165.964 6.045C166.389 6.721 166.601 7.52267 166.601 8.45C166.601 9.36867 166.389 10.1703 165.964 10.855C165.54 11.531 164.95 12.0597 164.196 12.441C163.442 12.8137 162.571 13 161.583 13H157.449ZM159.555 11.271H161.479C162.086 11.271 162.61 11.1583 163.052 10.933C163.503 10.699 163.85 10.3697 164.092 9.945C164.344 9.52033 164.469 9.022 164.469 8.45C164.469 7.86933 164.344 7.371 164.092 6.955C163.85 6.53033 163.503 6.20533 163.052 5.98C162.61 5.746 162.086 5.629 161.479 5.629H159.555V11.271ZM156.227 9.074V7.67H161.843V9.074H156.227ZM172.332 13V11.635L172.202 11.336V8.892C172.202 8.45867 172.068 8.12067 171.799 7.878C171.539 7.63533 171.136 7.514 170.59 7.514C170.218 7.514 169.849 7.57467 169.485 7.696C169.13 7.80867 168.827 7.96467 168.575 8.164L167.847 6.747C168.229 6.47833 168.688 6.27033 169.225 6.123C169.763 5.97567 170.309 5.902 170.863 5.902C171.929 5.902 172.757 6.15333 173.346 6.656C173.936 7.15867 174.23 7.943 174.23 9.009V13H172.332ZM170.2 13.104C169.654 13.104 169.186 13.013 168.796 12.831C168.406 12.6403 168.107 12.3847 167.899 12.064C167.691 11.7433 167.587 11.3837 167.587 10.985C167.587 10.569 167.687 10.205 167.886 9.893C168.094 9.581 168.419 9.33833 168.861 9.165C169.303 8.983 169.88 8.892 170.59 8.892H172.449V10.075H170.811C170.335 10.075 170.005 10.153 169.823 10.309C169.65 10.465 169.563 10.66 169.563 10.894C169.563 11.154 169.663 11.362 169.862 11.518C170.07 11.6653 170.352 11.739 170.707 11.739C171.045 11.739 171.349 11.661 171.617 11.505C171.886 11.3403 172.081 11.102 172.202 10.79L172.514 11.726C172.367 12.1767 172.098 12.519 171.708 12.753C171.318 12.987 170.816 13.104 170.2 13.104ZM172.046 5.148C171.821 5.148 171.622 5.109 171.448 5.031C171.275 4.94433 171.119 4.849 170.98 4.745C170.842 4.63233 170.712 4.537 170.59 4.459C170.469 4.37233 170.348 4.329 170.226 4.329C170.053 4.329 169.91 4.394 169.797 4.524C169.685 4.64533 169.62 4.823 169.602 5.057H168.575C168.593 4.47633 168.736 4.017 169.004 3.679C169.273 3.33233 169.637 3.159 170.096 3.159C170.322 3.159 170.521 3.20233 170.694 3.289C170.868 3.367 171.024 3.46233 171.162 3.575C171.31 3.68767 171.444 3.78733 171.565 3.874C171.687 3.952 171.804 3.991 171.916 3.991C172.098 3.991 172.246 3.93033 172.358 3.809C172.471 3.679 172.532 3.50567 172.54 3.289H173.567C173.559 3.84367 173.416 4.29433 173.138 4.641C172.87 4.979 172.506 5.148 172.046 5.148ZM178.851 13L182.764 7.605V9.139L179.02 3.9H181.412L183.999 7.553L182.998 7.566L185.546 3.9H187.834L184.116 9.048V7.54L188.055 13H185.624L182.946 9.139H183.908L181.269 13H178.851ZM193.089 13V11.635L192.959 11.336V8.892C192.959 8.45867 192.825 8.12067 192.556 7.878C192.296 7.63533 191.893 7.514 191.347 7.514C190.975 7.514 190.606 7.57467 190.242 7.696C189.887 7.80867 189.584 7.96467 189.332 8.164L188.604 6.747C188.986 6.47833 189.445 6.27033 189.982 6.123C190.52 5.97567 191.066 5.902 191.62 5.902C192.686 5.902 193.514 6.15333 194.103 6.656C194.693 7.15867 194.987 7.943 194.987 9.009V13H193.089ZM190.957 13.104C190.411 13.104 189.943 13.013 189.553 12.831C189.163 12.6403 188.864 12.3847 188.656 12.064C188.448 11.7433 188.344 11.3837 188.344 10.985C188.344 10.569 188.444 10.205 188.643 9.893C188.851 9.581 189.176 9.33833 189.618 9.165C190.06 8.983 190.637 8.892 191.347 8.892H193.206V10.075H191.568C191.092 10.075 190.762 10.153 190.58 10.309C190.407 10.465 190.32 10.66 190.32 10.894C190.32 11.154 190.42 11.362 190.619 11.518C190.827 11.6653 191.109 11.739 191.464 11.739C191.802 11.739 192.106 11.661 192.374 11.505C192.643 11.3403 192.838 11.102 192.959 10.79L193.271 11.726C193.124 12.1767 192.855 12.519 192.465 12.753C192.075 12.987 191.573 13.104 190.957 13.104ZM190.645 5.109L192.4 3.237H194.584L192.231 5.109H190.645ZM200.254 13.104C199.5 13.104 198.828 12.9523 198.239 12.649C197.649 12.337 197.186 11.908 196.848 11.362C196.518 10.816 196.354 10.1963 196.354 9.503C196.354 8.801 196.518 8.18133 196.848 7.644C197.186 7.098 197.649 6.67333 198.239 6.37C198.828 6.058 199.5 5.902 200.254 5.902C200.99 5.902 201.632 6.058 202.178 6.37C202.724 6.67333 203.127 7.111 203.387 7.683L201.814 8.528C201.632 8.19867 201.402 7.956 201.125 7.8C200.856 7.644 200.561 7.566 200.241 7.566C199.894 7.566 199.582 7.644 199.305 7.8C199.027 7.956 198.806 8.177 198.642 8.463C198.486 8.749 198.408 9.09567 198.408 9.503C198.408 9.91033 198.486 10.257 198.642 10.543C198.806 10.829 199.027 11.05 199.305 11.206C199.582 11.362 199.894 11.44 200.241 11.44C200.561 11.44 200.856 11.3663 201.125 11.219C201.402 11.063 201.632 10.816 201.814 10.478L203.387 11.336C203.127 11.8993 202.724 12.337 202.178 12.649C201.632 12.9523 200.99 13.104 200.254 13.104ZM208.379 13V3.9H210.121L215.49 10.452H214.645V3.9H216.725V13H214.996L209.614 6.448H210.459V13H208.379ZM222.986 5.902C223.54 5.902 224.034 6.01467 224.468 6.24C224.91 6.45667 225.256 6.79467 225.508 7.254C225.759 7.70467 225.885 8.28533 225.885 8.996V13H223.857V9.308C223.857 8.74467 223.731 8.32867 223.48 8.06C223.237 7.79133 222.89 7.657 222.44 7.657C222.119 7.657 221.829 7.72633 221.569 7.865C221.317 7.995 221.118 8.19867 220.971 8.476C220.832 8.75333 220.763 9.10867 220.763 9.542V13H218.735V3.354H220.763V7.943L220.308 7.358C220.559 6.89 220.919 6.53033 221.387 6.279C221.855 6.02767 222.388 5.902 222.986 5.902ZM232.013 13V11.635L231.883 11.336V8.892C231.883 8.45867 231.749 8.12067 231.48 7.878C231.22 7.63533 230.817 7.514 230.271 7.514C229.898 7.514 229.53 7.57467 229.166 7.696C228.811 7.80867 228.507 7.96467 228.256 8.164L227.528 6.747C227.909 6.47833 228.369 6.27033 228.906 6.123C229.443 5.97567 229.989 5.902 230.544 5.902C231.61 5.902 232.438 6.15333 233.027 6.656C233.616 7.15867 233.911 7.943 233.911 9.009V13H232.013ZM229.881 13.104C229.335 13.104 228.867 13.013 228.477 12.831C228.087 12.6403 227.788 12.3847 227.58 12.064C227.372 11.7433 227.268 11.3837 227.268 10.985C227.268 10.569 227.368 10.205 227.567 9.893C227.775 9.581 228.1 9.33833 228.542 9.165C228.984 8.983 229.56 8.892 230.271 8.892H232.13V10.075H230.492C230.015 10.075 229.686 10.153 229.504 10.309C229.331 10.465 229.244 10.66 229.244 10.894C229.244 11.154 229.344 11.362 229.543 11.518C229.751 11.6653 230.033 11.739 230.388 11.739C230.726 11.739 231.029 11.661 231.298 11.505C231.567 11.3403 231.762 11.102 231.883 10.79L232.195 11.726C232.048 12.1767 231.779 12.519 231.389 12.753C230.999 12.987 230.496 13.104 229.881 13.104ZM230.596 15.73C230.345 15.73 230.132 15.652 229.959 15.496C229.786 15.34 229.699 15.1277 229.699 14.859C229.699 14.5903 229.786 14.3693 229.959 14.196C230.132 14.0313 230.345 13.949 230.596 13.949C230.847 13.949 231.06 14.0313 231.233 14.196C231.406 14.3693 231.493 14.5903 231.493 14.859C231.493 15.1277 231.406 15.34 231.233 15.496C231.06 15.652 230.847 15.73 230.596 15.73ZM228.139 5.109L229.855 3.237H231.649L233.365 5.109H231.883L230.089 3.549H231.415L229.621 5.109H228.139ZM239.998 5.902C240.552 5.902 241.046 6.01467 241.48 6.24C241.922 6.45667 242.268 6.79467 242.52 7.254C242.771 7.70467 242.897 8.28533 242.897 8.996V13H240.869V9.308C240.869 8.74467 240.743 8.32867 240.492 8.06C240.249 7.79133 239.902 7.657 239.452 7.657C239.131 7.657 238.841 7.72633 238.581 7.865C238.329 7.995 238.13 8.19867 237.983 8.476C237.844 8.75333 237.775 9.10867 237.775 9.542V13H235.747V6.006H237.684V7.943L237.32 7.358C237.571 6.89 237.931 6.53033 238.399 6.279C238.867 6.02767 239.4 5.902 239.998 5.902ZM127.224 29V21.616H124.312V19.9H132.242V21.616H129.33V29H127.224ZM137.483 21.902C138.038 21.902 138.532 22.0147 138.965 22.24C139.407 22.4567 139.754 22.7947 140.005 23.254C140.256 23.7047 140.382 24.2853 140.382 24.996V29H138.354V25.308C138.354 24.7447 138.228 24.3287 137.977 24.06C137.734 23.7913 137.388 23.657 136.937 23.657C136.616 23.657 136.326 23.7263 136.066 23.865C135.815 23.995 135.615 24.1987 135.468 24.476C135.329 24.7533 135.26 25.1087 135.26 25.542V29H133.232V19.354H135.26V23.943L134.805 23.358C135.056 22.89 135.416 22.5303 135.884 22.279C136.352 22.0277 136.885 21.902 137.483 21.902ZM145.599 29.104C144.854 29.104 144.191 28.948 143.61 28.636C143.038 28.324 142.583 27.8993 142.245 27.362C141.916 26.816 141.751 26.1963 141.751 25.503C141.751 24.801 141.916 24.1813 142.245 23.644C142.583 23.098 143.038 22.6733 143.61 22.37C144.191 22.058 144.854 21.902 145.599 21.902C146.336 21.902 146.994 22.058 147.575 22.37C148.156 22.6733 148.611 23.0937 148.94 23.631C149.269 24.1683 149.434 24.7923 149.434 25.503C149.434 26.1963 149.269 26.816 148.94 27.362C148.611 27.8993 148.156 28.324 147.575 28.636C146.994 28.948 146.336 29.104 145.599 29.104ZM145.599 27.44C145.937 27.44 146.24 27.362 146.509 27.206C146.778 27.05 146.99 26.829 147.146 26.543C147.302 26.2483 147.38 25.9017 147.38 25.503C147.38 25.0957 147.302 24.749 147.146 24.463C146.99 24.177 146.778 23.956 146.509 23.8C146.24 23.644 145.937 23.566 145.599 23.566C145.261 23.566 144.958 23.644 144.689 23.8C144.42 23.956 144.204 24.177 144.039 24.463C143.883 24.749 143.805 25.0957 143.805 25.503C143.805 25.9017 143.883 26.2483 144.039 26.543C144.204 26.829 144.42 27.05 144.689 27.206C144.958 27.362 145.261 27.44 145.599 27.44ZM142.96 21.109L144.676 19.237H146.47L148.186 21.109H146.704L144.91 19.549H146.236L144.442 21.109H142.96ZM155.041 21.902C155.595 21.902 156.089 22.0147 156.523 22.24C156.965 22.4567 157.311 22.7947 157.563 23.254C157.814 23.7047 157.94 24.2853 157.94 24.996V29H155.912V25.308C155.912 24.7447 155.786 24.3287 155.535 24.06C155.292 23.7913 154.945 23.657 154.495 23.657C154.174 23.657 153.884 23.7263 153.624 23.865C153.372 23.995 153.173 24.1987 153.026 24.476C152.887 24.7533 152.818 25.1087 152.818 25.542V29H150.79V22.006H152.727V23.943L152.363 23.358C152.614 22.89 152.974 22.5303 153.442 22.279C153.91 22.0277 154.443 21.902 155.041 21.902ZM163.118 31.626C162.459 31.626 161.822 31.5437 161.207 31.379C160.6 31.223 160.093 30.9847 159.686 30.664L160.492 29.208C160.786 29.4507 161.159 29.6413 161.61 29.78C162.069 29.9273 162.52 30.001 162.962 30.001C163.681 30.001 164.201 29.8407 164.522 29.52C164.851 29.1993 165.016 28.7227 165.016 28.09V27.037L165.146 25.282L165.12 23.514V22.006H167.044V27.83C167.044 29.13 166.706 30.0877 166.03 30.703C165.354 31.3183 164.383 31.626 163.118 31.626ZM162.806 28.662C162.156 28.662 161.566 28.5233 161.038 28.246C160.518 27.96 160.097 27.5657 159.777 27.063C159.465 26.5517 159.309 25.958 159.309 25.282C159.309 24.5973 159.465 24.0037 159.777 23.501C160.097 22.9897 160.518 22.5953 161.038 22.318C161.566 22.0407 162.156 21.902 162.806 21.902C163.395 21.902 163.915 22.0233 164.366 22.266C164.816 22.5 165.167 22.8683 165.419 23.371C165.67 23.865 165.796 24.502 165.796 25.282C165.796 26.0533 165.67 26.6903 165.419 27.193C165.167 27.687 164.816 28.0553 164.366 28.298C163.915 28.5407 163.395 28.662 162.806 28.662ZM163.209 26.998C163.564 26.998 163.88 26.9287 164.158 26.79C164.435 26.6427 164.652 26.439 164.808 26.179C164.964 25.919 165.042 25.62 165.042 25.282C165.042 24.9353 164.964 24.6363 164.808 24.385C164.652 24.125 164.435 23.9257 164.158 23.787C163.88 23.6397 163.564 23.566 163.209 23.566C162.853 23.566 162.537 23.6397 162.26 23.787C161.982 23.9257 161.761 24.125 161.597 24.385C161.441 24.6363 161.363 24.9353 161.363 25.282C161.363 25.62 161.441 25.919 161.597 26.179C161.761 26.439 161.982 26.6427 162.26 26.79C162.537 26.9287 162.853 26.998 163.209 26.998ZM174.641 29V21.616H171.729V19.9H179.659V21.616H176.747V29H174.641ZM180.649 29V22.006H182.677V29H180.649ZM181.663 21.031C181.29 21.031 180.987 20.9227 180.753 20.706C180.519 20.4893 180.402 20.2207 180.402 19.9C180.402 19.5793 180.519 19.3107 180.753 19.094C180.987 18.8773 181.29 18.769 181.663 18.769C182.036 18.769 182.339 18.873 182.573 19.081C182.807 19.2803 182.924 19.5403 182.924 19.861C182.924 20.199 182.807 20.4807 182.573 20.706C182.348 20.9227 182.044 21.031 181.663 21.031ZM188.81 21.902C189.365 21.902 189.859 22.0147 190.292 22.24C190.734 22.4567 191.081 22.7947 191.332 23.254C191.583 23.7047 191.709 24.2853 191.709 24.996V29H189.681V25.308C189.681 24.7447 189.555 24.3287 189.304 24.06C189.061 23.7913 188.715 23.657 188.264 23.657C187.943 23.657 187.653 23.7263 187.393 23.865C187.142 23.995 186.942 24.1987 186.795 24.476C186.656 24.7533 186.587 25.1087 186.587 25.542V29H184.559V22.006H186.496V23.943L186.132 23.358C186.383 22.89 186.743 22.5303 187.211 22.279C187.679 22.0277 188.212 21.902 188.81 21.902ZM199.257 29V21.616H196.345V19.9H204.275V21.616H201.363V29H199.257ZM209.516 21.902C210.071 21.902 210.565 22.0147 210.998 22.24C211.44 22.4567 211.787 22.7947 212.038 23.254C212.289 23.7047 212.415 24.2853 212.415 24.996V29H210.387V25.308C210.387 24.7447 210.261 24.3287 210.01 24.06C209.767 23.7913 209.421 23.657 208.97 23.657C208.649 23.657 208.359 23.7263 208.099 23.865C207.848 23.995 207.648 24.1987 207.501 24.476C207.362 24.7533 207.293 25.1087 207.293 25.542V29H205.265V19.354H207.293V23.943L206.838 23.358C207.089 22.89 207.449 22.5303 207.917 22.279C208.385 22.0277 208.918 21.902 209.516 21.902ZM218.543 29V27.635L218.413 27.336V24.892C218.413 24.4587 218.279 24.1207 218.01 23.878C217.75 23.6353 217.347 23.514 216.801 23.514C216.429 23.514 216.06 23.5747 215.696 23.696C215.341 23.8087 215.038 23.9647 214.786 24.164L214.058 22.747C214.44 22.4783 214.899 22.2703 215.436 22.123C215.974 21.9757 216.52 21.902 217.074 21.902C218.14 21.902 218.968 22.1533 219.557 22.656C220.147 23.1587 220.441 23.943 220.441 25.009V29H218.543ZM216.411 29.104C215.865 29.104 215.397 29.013 215.007 28.831C214.617 28.6403 214.318 28.3847 214.11 28.064C213.902 27.7433 213.798 27.3837 213.798 26.985C213.798 26.569 213.898 26.205 214.097 25.893C214.305 25.581 214.63 25.3383 215.072 25.165C215.514 24.983 216.091 24.892 216.801 24.892H218.66V26.075H217.022C216.546 26.075 216.216 26.153 216.034 26.309C215.861 26.465 215.774 26.66 215.774 26.894C215.774 27.154 215.874 27.362 216.073 27.518C216.281 27.6653 216.563 27.739 216.918 27.739C217.256 27.739 217.56 27.661 217.828 27.505C218.097 27.3403 218.292 27.102 218.413 26.79L218.725 27.726C218.578 28.1767 218.309 28.519 217.919 28.753C217.529 28.987 217.027 29.104 216.411 29.104ZM226.528 21.902C227.082 21.902 227.576 22.0147 228.01 22.24C228.452 22.4567 228.798 22.7947 229.05 23.254C229.301 23.7047 229.427 24.2853 229.427 24.996V29H227.399V25.308C227.399 24.7447 227.273 24.3287 227.022 24.06C226.779 23.7913 226.432 23.657 225.982 23.657C225.661 23.657 225.371 23.7263 225.111 23.865C224.859 23.995 224.66 24.1987 224.513 24.476C224.374 24.7533 224.305 25.1087 224.305 25.542V29H222.277V22.006H224.214V23.943L223.85 23.358C224.101 22.89 224.461 22.5303 224.929 22.279C225.397 22.0277 225.93 21.902 226.528 21.902ZM235.516 21.902C236.071 21.902 236.565 22.0147 236.998 22.24C237.44 22.4567 237.787 22.7947 238.038 23.254C238.289 23.7047 238.415 24.2853 238.415 24.996V29H236.387V25.308C236.387 24.7447 236.261 24.3287 236.01 24.06C235.767 23.7913 235.421 23.657 234.97 23.657C234.649 23.657 234.359 23.7263 234.099 23.865C233.848 23.995 233.648 24.1987 233.501 24.476C233.362 24.7533 233.293 25.1087 233.293 25.542V29H231.265V19.354H233.293V23.943L232.838 23.358C233.089 22.89 233.449 22.5303 233.917 22.279C234.385 22.0277 234.918 21.902 235.516 21.902ZM245.963 29V21.616H243.051V19.9H250.981V21.616H248.069V29H245.963ZM254.588 29.104C253.843 29.104 253.18 28.948 252.599 28.636C252.027 28.324 251.572 27.8993 251.234 27.362C250.905 26.816 250.74 26.1963 250.74 25.503C250.74 24.801 250.905 24.1813 251.234 23.644C251.572 23.098 252.027 22.6733 252.599 22.37C253.18 22.058 253.843 21.902 254.588 21.902C255.325 21.902 255.984 22.058 256.564 22.37C257.145 22.6733 257.6 23.0937 257.929 23.631C258.259 24.1683 258.423 24.7923 258.423 25.503C258.423 26.1963 258.259 26.816 257.929 27.362C257.6 27.8993 257.145 28.324 256.564 28.636C255.984 28.948 255.325 29.104 254.588 29.104ZM254.588 27.44C254.926 27.44 255.23 27.362 255.498 27.206C255.767 27.05 255.979 26.829 256.135 26.543C256.291 26.2483 256.369 25.9017 256.369 25.503C256.369 25.0957 256.291 24.749 256.135 24.463C255.979 24.177 255.767 23.956 255.498 23.8C255.23 23.644 254.926 23.566 254.588 23.566C254.25 23.566 253.947 23.644 253.678 23.8C253.41 23.956 253.193 24.177 253.028 24.463C252.872 24.749 252.794 25.0957 252.794 25.503C252.794 25.9017 252.872 26.2483 253.028 26.543C253.193 26.829 253.41 27.05 253.678 27.206C253.947 27.362 254.25 27.44 254.588 27.44ZM263.955 29V27.635L263.825 27.336V24.892C263.825 24.4587 263.69 24.1207 263.422 23.878C263.162 23.6353 262.759 23.514 262.213 23.514C261.84 23.514 261.472 23.5747 261.108 23.696C260.752 23.8087 260.449 23.9647 260.198 24.164L259.47 22.747C259.851 22.4783 260.31 22.2703 260.848 22.123C261.385 21.9757 261.931 21.902 262.486 21.902C263.552 21.902 264.379 22.1533 264.969 22.656C265.558 23.1587 265.853 23.943 265.853 25.009V29H263.955ZM261.823 29.104C261.277 29.104 260.809 29.013 260.419 28.831C260.029 28.6403 259.73 28.3847 259.522 28.064C259.314 27.7433 259.21 27.3837 259.21 26.985C259.21 26.569 259.309 26.205 259.509 25.893C259.717 25.581 260.042 25.3383 260.484 25.165C260.926 24.983 261.502 24.892 262.213 24.892H264.072V26.075H262.434C261.957 26.075 261.628 26.153 261.446 26.309C261.272 26.465 261.186 26.66 261.186 26.894C261.186 27.154 261.285 27.362 261.485 27.518C261.693 27.6653 261.974 27.739 262.33 27.739C262.668 27.739 262.971 27.661 263.24 27.505C263.508 27.3403 263.703 27.102 263.825 26.79L264.137 27.726C263.989 28.1767 263.721 28.519 263.331 28.753C262.941 28.987 262.438 29.104 261.823 29.104ZM261.511 21.109L263.266 19.237H265.45L263.097 21.109H261.511ZM271.939 21.902C272.494 21.902 272.988 22.0147 273.421 22.24C273.863 22.4567 274.21 22.7947 274.461 23.254C274.712 23.7047 274.838 24.2853 274.838 24.996V29H272.81V25.308C272.81 24.7447 272.684 24.3287 272.433 24.06C272.19 23.7913 271.844 23.657 271.393 23.657C271.072 23.657 270.782 23.7263 270.522 23.865C270.271 23.995 270.071 24.1987 269.924 24.476C269.785 24.7533 269.716 25.1087 269.716 25.542V29H267.688V22.006H269.625V23.943L269.261 23.358C269.512 22.89 269.872 22.5303 270.34 22.279C270.808 22.0277 271.341 21.902 271.939 21.902Z" fill="black"/>
<path d="M332.86 21L328.934 11.9H331.209L334.641 19.96H333.302L336.786 11.9H338.879L334.94 21H332.86ZM343.266 21V19.635L343.136 19.336V16.892C343.136 16.4587 343.001 16.1207 342.733 15.878C342.473 15.6353 342.07 15.514 341.524 15.514C341.151 15.514 340.783 15.5747 340.419 15.696C340.063 15.8087 339.76 15.9647 339.509 16.164L338.781 14.747C339.162 14.4783 339.621 14.2703 340.159 14.123C340.696 13.9757 341.242 13.902 341.797 13.902C342.863 13.902 343.69 14.1533 344.28 14.656C344.869 15.1587 345.164 15.943 345.164 17.009V21H343.266ZM341.134 21.104C340.588 21.104 340.12 21.013 339.73 20.831C339.34 20.6403 339.041 20.3847 338.833 20.064C338.625 19.7433 338.521 19.3837 338.521 18.985C338.521 18.569 338.62 18.205 338.82 17.893C339.028 17.581 339.353 17.3383 339.795 17.165C340.237 16.983 340.813 16.892 341.524 16.892H343.383V18.075H341.745C341.268 18.075 340.939 18.153 340.757 18.309C340.583 18.465 340.497 18.66 340.497 18.894C340.497 19.154 340.596 19.362 340.796 19.518C341.004 19.6653 341.285 19.739 341.641 19.739C341.979 19.739 342.282 19.661 342.551 19.505C342.819 19.3403 343.014 19.102 343.136 18.79L343.448 19.726C343.3 20.1767 343.032 20.519 342.642 20.753C342.252 20.987 341.749 21.104 341.134 21.104ZM341.849 23.73C341.597 23.73 341.385 23.652 341.212 23.496C341.038 23.34 340.952 23.1277 340.952 22.859C340.952 22.5903 341.038 22.3693 341.212 22.196C341.385 22.0313 341.597 21.949 341.849 21.949C342.1 21.949 342.312 22.0313 342.486 22.196C342.659 22.3693 342.746 22.5903 342.746 22.859C342.746 23.1277 342.659 23.34 342.486 23.496C342.312 23.652 342.1 23.73 341.849 23.73ZM339.392 13.109L341.108 11.237H342.902L344.618 13.109H343.136L341.342 11.549H342.668L340.874 13.109H339.392ZM351.25 13.902C351.805 13.902 352.299 14.0147 352.732 14.24C353.174 14.4567 353.521 14.7947 353.772 15.254C354.023 15.7047 354.149 16.2853 354.149 16.996V21H352.121V17.308C352.121 16.7447 351.995 16.3287 351.744 16.06C351.501 15.7913 351.155 15.657 350.704 15.657C350.383 15.657 350.093 15.7263 349.833 15.865C349.582 15.995 349.382 16.1987 349.235 16.476C349.096 16.7533 349.027 17.1087 349.027 17.542V21H346.999V14.006H348.936V15.943L348.572 15.358C348.823 14.89 349.183 14.5303 349.651 14.279C350.119 14.0277 350.652 13.902 351.25 13.902ZM364.167 21.156C363.465 21.156 362.811 21.0433 362.204 20.818C361.606 20.584 361.086 20.2547 360.644 19.83C360.202 19.4053 359.855 18.907 359.604 18.335C359.361 17.763 359.24 17.1347 359.24 16.45C359.24 15.7653 359.361 15.137 359.604 14.565C359.855 13.993 360.202 13.4947 360.644 13.07C361.095 12.6453 361.619 12.3203 362.217 12.095C362.815 11.861 363.469 11.744 364.18 11.744C364.969 11.744 365.679 11.8827 366.312 12.16C366.953 12.4287 367.491 12.8273 367.924 13.356L366.572 14.604C366.26 14.2487 365.913 13.9843 365.532 13.811C365.151 13.629 364.735 13.538 364.284 13.538C363.859 13.538 363.469 13.6073 363.114 13.746C362.759 13.8847 362.451 14.084 362.191 14.344C361.931 14.604 361.727 14.9117 361.58 15.267C361.441 15.6223 361.372 16.0167 361.372 16.45C361.372 16.8833 361.441 17.2777 361.58 17.633C361.727 17.9883 361.931 18.296 362.191 18.556C362.451 18.816 362.759 19.0153 363.114 19.154C363.469 19.2927 363.859 19.362 364.284 19.362C364.735 19.362 365.151 19.2753 365.532 19.102C365.913 18.92 366.26 18.647 366.572 18.283L367.924 19.531C367.491 20.0597 366.953 20.4627 366.312 20.74C365.679 21.0173 364.964 21.156 364.167 21.156ZM373.454 13.902C374.009 13.902 374.503 14.0147 374.936 14.24C375.378 14.4567 375.725 14.7947 375.976 15.254C376.227 15.7047 376.353 16.2853 376.353 16.996V21H374.325V17.308C374.325 16.7447 374.199 16.3287 373.948 16.06C373.705 15.7913 373.359 15.657 372.908 15.657C372.587 15.657 372.297 15.7263 372.037 15.865C371.786 15.995 371.586 16.1987 371.439 16.476C371.3 16.7533 371.231 17.1087 371.231 17.542V21H369.203V11.354H371.231V15.943L370.776 15.358C371.027 14.89 371.387 14.5303 371.855 14.279C372.323 14.0277 372.856 13.902 373.454 13.902ZM381.142 21.104C380.562 21.104 380.042 20.9913 379.582 20.766C379.132 20.5407 378.781 20.1983 378.529 19.739C378.278 19.271 378.152 18.6773 378.152 17.958V14.006H380.18V17.659C380.18 18.2397 380.302 18.6687 380.544 18.946C380.796 19.2147 381.147 19.349 381.597 19.349C381.909 19.349 382.187 19.284 382.429 19.154C382.672 19.0153 382.863 18.8073 383.001 18.53C383.14 18.244 383.209 17.8887 383.209 17.464V14.006H385.237V21H383.313V19.076L383.664 19.635C383.43 20.1203 383.084 20.4887 382.624 20.74C382.174 20.9827 381.68 21.104 381.142 21.104ZM388 23.626C387.636 23.626 387.277 23.5697 386.921 23.457C386.566 23.3443 386.276 23.1883 386.05 22.989L386.791 21.546C386.947 21.6847 387.125 21.793 387.324 21.871C387.532 21.949 387.736 21.988 387.935 21.988C388.221 21.988 388.447 21.9187 388.611 21.78C388.785 21.65 388.941 21.429 389.079 21.117L389.443 20.259L389.599 20.038L392.108 14.006H394.058L390.899 21.429C390.674 21.9923 390.414 22.4343 390.119 22.755C389.833 23.0757 389.513 23.301 389.157 23.431C388.811 23.561 388.425 23.626 388 23.626ZM389.196 21.273L386.076 14.006H388.169L390.587 19.856L389.196 21.273ZM398.166 21.104C397.369 21.104 396.667 20.948 396.06 20.636C395.462 20.324 394.999 19.8993 394.669 19.362C394.34 18.816 394.175 18.1963 394.175 17.503C394.175 16.801 394.336 16.1813 394.656 15.644C394.986 15.098 395.432 14.6733 395.995 14.37C396.559 14.058 397.196 13.902 397.906 13.902C398.591 13.902 399.206 14.0493 399.752 14.344C400.307 14.63 400.745 15.046 401.065 15.592C401.386 16.1293 401.546 16.775 401.546 17.529C401.546 17.607 401.542 17.698 401.533 17.802C401.525 17.8973 401.516 17.9883 401.507 18.075H395.826V16.892H400.441L399.661 17.243C399.661 16.879 399.588 16.5627 399.44 16.294C399.293 16.0253 399.089 15.8173 398.829 15.67C398.569 15.514 398.266 15.436 397.919 15.436C397.573 15.436 397.265 15.514 396.996 15.67C396.736 15.8173 396.533 16.0297 396.385 16.307C396.238 16.5757 396.164 16.8963 396.164 17.269V17.581C396.164 17.9623 396.247 18.3003 396.411 18.595C396.585 18.881 396.823 19.102 397.126 19.258C397.438 19.4053 397.802 19.479 398.218 19.479C398.591 19.479 398.916 19.4227 399.193 19.31C399.479 19.1973 399.739 19.0283 399.973 18.803L401.052 19.973C400.732 20.337 400.329 20.6187 399.843 20.818C399.358 21.0087 398.799 21.104 398.166 21.104ZM395.254 13.109L396.983 11.627H398.751L400.48 13.109H398.985L397.23 11.939H398.504L396.749 13.109H395.254ZM400.181 12.108L399.687 11.627C399.861 11.5403 399.982 11.4493 400.051 11.354C400.129 11.2587 400.168 11.1677 400.168 11.081C400.168 10.9683 400.125 10.8773 400.038 10.808C399.96 10.7387 399.856 10.704 399.726 10.704C399.544 10.704 399.354 10.756 399.154 10.86L398.816 10.236C398.964 10.1407 399.133 10.0713 399.323 10.028C399.514 9.976 399.705 9.95 399.895 9.95C400.259 9.95 400.55 10.0453 400.766 10.236C400.983 10.418 401.091 10.665 401.091 10.977C401.091 11.237 401.005 11.4667 400.831 11.666C400.658 11.8653 400.441 12.0127 400.181 12.108ZM407.147 13.902C407.702 13.902 408.196 14.0147 408.629 14.24C409.071 14.4567 409.418 14.7947 409.669 15.254C409.921 15.7047 410.046 16.2853 410.046 16.996V21H408.018V17.308C408.018 16.7447 407.893 16.3287 407.641 16.06C407.399 15.7913 407.052 15.657 406.601 15.657C406.281 15.657 405.99 15.7263 405.73 15.865C405.479 15.995 405.28 16.1987 405.132 16.476C404.994 16.7533 404.924 17.1087 404.924 17.542V21H402.896V14.006H404.833V15.943L404.469 15.358C404.721 14.89 405.08 14.5303 405.548 14.279C406.016 14.0277 406.549 13.902 407.147 13.902Z" fill="black"/>
<path d="M497.606 16V6.9H501.74C502.728 6.9 503.599 7.09067 504.353 7.472C505.107 7.84467 505.696 8.369 506.121 9.045C506.546 9.721 506.758 10.5227 506.758 11.45C506.758 12.3687 506.546 13.1703 506.121 13.855C505.696 14.531 505.107 15.0597 504.353 15.441C503.599 15.8137 502.728 16 501.74 16H497.606ZM499.712 14.271H501.636C502.243 14.271 502.767 14.1583 503.209 13.933C503.66 13.699 504.006 13.3697 504.249 12.945C504.5 12.5203 504.626 12.022 504.626 11.45C504.626 10.8693 504.5 10.371 504.249 9.955C504.006 9.53033 503.66 9.20533 503.209 8.98C502.767 8.746 502.243 8.629 501.636 8.629H499.712V14.271ZM496.384 12.074V10.67H502V12.074H496.384ZM512.489 16V14.635L512.359 14.336V11.892C512.359 11.4587 512.225 11.1207 511.956 10.878C511.696 10.6353 511.293 10.514 510.747 10.514C510.375 10.514 510.006 10.5747 509.642 10.696C509.287 10.8087 508.984 10.9647 508.732 11.164L508.004 9.747C508.386 9.47833 508.845 9.27033 509.382 9.123C509.92 8.97567 510.466 8.902 511.02 8.902C512.086 8.902 512.914 9.15333 513.503 9.656C514.093 10.1587 514.387 10.943 514.387 12.009V16H512.489ZM510.357 16.104C509.811 16.104 509.343 16.013 508.953 15.831C508.563 15.6403 508.264 15.3847 508.056 15.064C507.848 14.7433 507.744 14.3837 507.744 13.985C507.744 13.569 507.844 13.205 508.043 12.893C508.251 12.581 508.576 12.3383 509.018 12.165C509.46 11.983 510.037 11.892 510.747 11.892H512.606V13.075H510.968C510.492 13.075 510.162 13.153 509.98 13.309C509.807 13.465 509.72 13.66 509.72 13.894C509.72 14.154 509.82 14.362 510.019 14.518C510.227 14.6653 510.509 14.739 510.864 14.739C511.202 14.739 511.506 14.661 511.774 14.505C512.043 14.3403 512.238 14.102 512.359 13.79L512.671 14.726C512.524 15.1767 512.255 15.519 511.865 15.753C511.475 15.987 510.973 16.104 510.357 16.104ZM520.474 8.902C521.028 8.902 521.522 9.01467 521.956 9.24C522.398 9.45667 522.744 9.79467 522.996 10.254C523.247 10.7047 523.373 11.2853 523.373 11.996V16H521.345V12.308C521.345 11.7447 521.219 11.3287 520.968 11.06C520.725 10.7913 520.378 10.657 519.928 10.657C519.607 10.657 519.317 10.7263 519.057 10.865C518.805 10.995 518.606 11.1987 518.459 11.476C518.32 11.7533 518.251 12.1087 518.251 12.542V16H516.223V9.006H518.16V10.943L517.796 10.358C518.047 9.89 518.407 9.53033 518.875 9.279C519.343 9.02767 519.876 8.902 520.474 8.902ZM528.551 18.626C527.892 18.626 527.255 18.5437 526.64 18.379C526.033 18.223 525.526 17.9847 525.119 17.664L525.925 16.208C526.219 16.4507 526.592 16.6413 527.043 16.78C527.502 16.9273 527.953 17.001 528.395 17.001C529.114 17.001 529.634 16.8407 529.955 16.52C530.284 16.1993 530.449 15.7227 530.449 15.09V14.037L530.579 12.282L530.553 10.514V9.006H532.477V14.83C532.477 16.13 532.139 17.0877 531.463 17.703C530.787 18.3183 529.816 18.626 528.551 18.626ZM528.239 15.662C527.589 15.662 526.999 15.5233 526.471 15.246C525.951 14.96 525.53 14.5657 525.21 14.063C524.898 13.5517 524.742 12.958 524.742 12.282C524.742 11.5973 524.898 11.0037 525.21 10.501C525.53 9.98967 525.951 9.59533 526.471 9.318C526.999 9.04067 527.589 8.902 528.239 8.902C528.828 8.902 529.348 9.02333 529.799 9.266C530.249 9.5 530.6 9.86833 530.852 10.371C531.103 10.865 531.229 11.502 531.229 12.282C531.229 13.0533 531.103 13.6903 530.852 14.193C530.6 14.687 530.249 15.0553 529.799 15.298C529.348 15.5407 528.828 15.662 528.239 15.662ZM528.642 13.998C528.997 13.998 529.313 13.9287 529.591 13.79C529.868 13.6427 530.085 13.439 530.241 13.179C530.397 12.919 530.475 12.62 530.475 12.282C530.475 11.9353 530.397 11.6363 530.241 11.385C530.085 11.125 529.868 10.9257 529.591 10.787C529.313 10.6397 528.997 10.566 528.642 10.566C528.286 10.566 527.97 10.6397 527.693 10.787C527.415 10.9257 527.194 11.125 527.03 11.385C526.874 11.6363 526.796 11.9353 526.796 12.282C526.796 12.62 526.874 12.919 527.03 13.179C527.194 13.439 527.415 13.6427 527.693 13.79C527.97 13.9287 528.286 13.998 528.642 13.998ZM542.583 16.156C541.864 16.156 541.201 16.0433 540.594 15.818C539.996 15.584 539.472 15.2547 539.021 14.83C538.579 14.4053 538.232 13.907 537.981 13.335C537.738 12.763 537.617 12.1347 537.617 11.45C537.617 10.7653 537.738 10.137 537.981 9.565C538.232 8.993 538.583 8.49467 539.034 8.07C539.485 7.64533 540.013 7.32033 540.62 7.095C541.227 6.861 541.894 6.744 542.622 6.744C543.428 6.744 544.152 6.87833 544.793 7.147C545.443 7.41567 545.989 7.80567 546.431 8.317L545.079 9.565C544.75 9.21833 544.39 8.96267 544 8.798C543.61 8.62467 543.185 8.538 542.726 8.538C542.284 8.538 541.881 8.60733 541.517 8.746C541.153 8.88467 540.837 9.084 540.568 9.344C540.308 9.604 540.104 9.91167 539.957 10.267C539.818 10.6223 539.749 11.0167 539.749 11.45C539.749 11.8747 539.818 12.2647 539.957 12.62C540.104 12.9753 540.308 13.2873 540.568 13.556C540.837 13.816 541.149 14.0153 541.504 14.154C541.868 14.2927 542.267 14.362 542.7 14.362C543.116 14.362 543.519 14.297 543.909 14.167C544.308 14.0283 544.693 13.7987 545.066 13.478L546.262 14.999C545.768 15.3717 545.192 15.6577 544.533 15.857C543.883 16.0563 543.233 16.156 542.583 16.156ZM544.338 14.726V11.307H546.262V14.999L544.338 14.726ZM548.075 16V9.006H550.103V16H548.075ZM549.089 8.031C548.716 8.031 548.413 7.92267 548.179 7.706C547.945 7.48933 547.828 7.22067 547.828 6.9C547.828 6.57933 547.945 6.31067 548.179 6.094C548.413 5.87733 548.716 5.769 549.089 5.769C549.462 5.769 549.765 5.873 549.999 6.081C550.233 6.28033 550.35 6.54033 550.35 6.861C550.35 7.199 550.233 7.48067 549.999 7.706C549.774 7.92267 549.47 8.031 549.089 8.031ZM556.275 16V14.635L556.145 14.336V11.892C556.145 11.4587 556.011 11.1207 555.742 10.878C555.482 10.6353 555.079 10.514 554.533 10.514C554.161 10.514 553.792 10.5747 553.428 10.696C553.073 10.8087 552.77 10.9647 552.518 11.164L551.79 9.747C552.172 9.47833 552.631 9.27033 553.168 9.123C553.706 8.97567 554.252 8.902 554.806 8.902C555.872 8.902 556.7 9.15333 557.289 9.656C557.879 10.1587 558.173 10.943 558.173 12.009V16H556.275ZM554.143 16.104C553.597 16.104 553.129 16.013 552.739 15.831C552.349 15.6403 552.05 15.3847 551.842 15.064C551.634 14.7433 551.53 14.3837 551.53 13.985C551.53 13.569 551.63 13.205 551.829 12.893C552.037 12.581 552.362 12.3383 552.804 12.165C553.246 11.983 553.823 11.892 554.533 11.892H556.392V13.075H554.754C554.278 13.075 553.948 13.153 553.766 13.309C553.593 13.465 553.506 13.66 553.506 13.894C553.506 14.154 553.606 14.362 553.805 14.518C554.013 14.6653 554.295 14.739 554.65 14.739C554.988 14.739 555.292 14.661 555.56 14.505C555.829 14.3403 556.024 14.102 556.145 13.79L556.457 14.726C556.31 15.1767 556.041 15.519 555.651 15.753C555.261 15.987 554.759 16.104 554.143 16.104ZM563.388 16.104C562.642 16.104 561.979 15.948 561.399 15.636C560.827 15.324 560.372 14.8993 560.034 14.362C559.704 13.816 559.54 13.1963 559.54 12.503C559.54 11.801 559.704 11.1813 560.034 10.644C560.372 10.098 560.827 9.67333 561.399 9.37C561.979 9.058 562.642 8.902 563.388 8.902C564.124 8.902 564.783 9.058 565.364 9.37C565.944 9.67333 566.399 10.0937 566.729 10.631C567.058 11.1683 567.223 11.7923 567.223 12.503C567.223 13.1963 567.058 13.816 566.729 14.362C566.399 14.8993 565.944 15.324 565.364 15.636C564.783 15.948 564.124 16.104 563.388 16.104ZM563.388 14.44C563.726 14.44 564.029 14.362 564.298 14.206C564.566 14.05 564.779 13.829 564.935 13.543C565.091 13.2483 565.169 12.9017 565.169 12.503C565.169 12.0957 565.091 11.749 564.935 11.463C564.779 11.177 564.566 10.956 564.298 10.8C564.029 10.644 563.726 10.566 563.388 10.566C563.05 10.566 562.746 10.644 562.478 10.8C562.209 10.956 561.992 11.177 561.828 11.463C561.672 11.749 561.594 12.0957 561.594 12.503C561.594 12.9017 561.672 13.2483 561.828 13.543C561.992 13.829 562.209 14.05 562.478 14.206C562.746 14.362 563.05 14.44 563.388 14.44Z" fill="black"/>
<path d="M670.473 16V6.9H674.607C675.595 6.9 676.466 7.09067 677.22 7.472C677.974 7.84467 678.563 8.369 678.988 9.045C679.413 9.721 679.625 10.5227 679.625 11.45C679.625 12.3687 679.413 13.1703 678.988 13.855C678.563 14.531 677.974 15.0597 677.22 15.441C676.466 15.8137 675.595 16 674.607 16H670.473ZM672.579 14.271H674.503C675.11 14.271 675.634 14.1583 676.076 13.933C676.527 13.699 676.873 13.3697 677.116 12.945C677.367 12.5203 677.493 12.022 677.493 11.45C677.493 10.8693 677.367 10.371 677.116 9.955C676.873 9.53033 676.527 9.20533 676.076 8.98C675.634 8.746 675.11 8.629 674.503 8.629H672.579V14.271ZM669.251 12.074V10.67H674.867V12.074H669.251ZM685.356 16V14.635L685.226 14.336V11.892C685.226 11.4587 685.092 11.1207 684.823 10.878C684.563 10.6353 684.16 10.514 683.614 10.514C683.242 10.514 682.873 10.5747 682.509 10.696C682.154 10.8087 681.851 10.9647 681.599 11.164L680.871 9.747C681.253 9.47833 681.712 9.27033 682.249 9.123C682.787 8.97567 683.333 8.902 683.887 8.902C684.953 8.902 685.781 9.15333 686.37 9.656C686.96 10.1587 687.254 10.943 687.254 12.009V16H685.356ZM683.224 16.104C682.678 16.104 682.21 16.013 681.82 15.831C681.43 15.6403 681.131 15.3847 680.923 15.064C680.715 14.7433 680.611 14.3837 680.611 13.985C680.611 13.569 680.711 13.205 680.91 12.893C681.118 12.581 681.443 12.3383 681.885 12.165C682.327 11.983 682.904 11.892 683.614 11.892H685.473V13.075H683.835C683.359 13.075 683.029 13.153 682.847 13.309C682.674 13.465 682.587 13.66 682.587 13.894C682.587 14.154 682.687 14.362 682.886 14.518C683.094 14.6653 683.376 14.739 683.731 14.739C684.069 14.739 684.373 14.661 684.641 14.505C684.91 14.3403 685.105 14.102 685.226 13.79L685.538 14.726C685.391 15.1767 685.122 15.519 684.732 15.753C684.342 15.987 683.84 16.104 683.224 16.104ZM682.912 8.109L684.667 6.237H686.851L684.498 8.109H682.912ZM693.341 8.902C693.895 8.902 694.389 9.01467 694.823 9.24C695.265 9.45667 695.611 9.79467 695.863 10.254C696.114 10.7047 696.24 11.2853 696.24 11.996V16H694.212V12.308C694.212 11.7447 694.086 11.3287 693.835 11.06C693.592 10.7913 693.245 10.657 692.795 10.657C692.474 10.657 692.184 10.7263 691.924 10.865C691.672 10.995 691.473 11.1987 691.326 11.476C691.187 11.7533 691.118 12.1087 691.118 12.542V16H689.09V9.006H691.027V10.943L690.663 10.358C690.914 9.89 691.274 9.53033 691.742 9.279C692.21 9.02767 692.743 8.902 693.341 8.902ZM702.329 8.902C702.884 8.902 703.378 9.01467 703.811 9.24C704.253 9.45667 704.6 9.79467 704.851 10.254C705.102 10.7047 705.228 11.2853 705.228 11.996V16H703.2V12.308C703.2 11.7447 703.074 11.3287 702.823 11.06C702.58 10.7913 702.234 10.657 701.783 10.657C701.462 10.657 701.172 10.7263 700.912 10.865C700.661 10.995 700.461 11.1987 700.314 11.476C700.175 11.7533 700.106 12.1087 700.106 12.542V16H698.078V6.354H700.106V10.943L699.651 10.358C699.902 9.89 700.262 9.53033 700.73 9.279C701.198 9.02767 701.731 8.902 702.329 8.902ZM715.285 16.156C714.566 16.156 713.903 16.0433 713.296 15.818C712.698 15.584 712.174 15.2547 711.723 14.83C711.281 14.4053 710.934 13.907 710.683 13.335C710.44 12.763 710.319 12.1347 710.319 11.45C710.319 10.7653 710.44 10.137 710.683 9.565C710.934 8.993 711.285 8.49467 711.736 8.07C712.187 7.64533 712.715 7.32033 713.322 7.095C713.929 6.861 714.596 6.744 715.324 6.744C716.13 6.744 716.854 6.87833 717.495 7.147C718.145 7.41567 718.691 7.80567 719.133 8.317L717.781 9.565C717.452 9.21833 717.092 8.96267 716.702 8.798C716.312 8.62467 715.887 8.538 715.428 8.538C714.986 8.538 714.583 8.60733 714.219 8.746C713.855 8.88467 713.539 9.084 713.27 9.344C713.01 9.604 712.806 9.91167 712.659 10.267C712.52 10.6223 712.451 11.0167 712.451 11.45C712.451 11.8747 712.52 12.2647 712.659 12.62C712.806 12.9753 713.01 13.2873 713.27 13.556C713.539 13.816 713.851 14.0153 714.206 14.154C714.57 14.2927 714.969 14.362 715.402 14.362C715.818 14.362 716.221 14.297 716.611 14.167C717.01 14.0283 717.395 13.7987 717.768 13.478L718.964 14.999C718.47 15.3717 717.894 15.6577 717.235 15.857C716.585 16.0563 715.935 16.156 715.285 16.156ZM717.04 14.726V11.307H718.964V14.999L717.04 14.726ZM720.777 16V9.006H722.805V16H720.777ZM721.791 8.031C721.419 8.031 721.115 7.92267 720.881 7.706C720.647 7.48933 720.53 7.22067 720.53 6.9C720.53 6.57933 720.647 6.31067 720.881 6.094C721.115 5.87733 721.419 5.769 721.791 5.769C722.164 5.769 722.467 5.873 722.701 6.081C722.935 6.28033 723.052 6.54033 723.052 6.861C723.052 7.199 722.935 7.48067 722.701 7.706C722.476 7.92267 722.173 8.031 721.791 8.031ZM728.977 16V14.635L728.847 14.336V11.892C728.847 11.4587 728.713 11.1207 728.444 10.878C728.184 10.6353 727.781 10.514 727.235 10.514C726.863 10.514 726.494 10.5747 726.13 10.696C725.775 10.8087 725.472 10.9647 725.22 11.164L724.492 9.747C724.874 9.47833 725.333 9.27033 725.87 9.123C726.408 8.97567 726.954 8.902 727.508 8.902C728.574 8.902 729.402 9.15333 729.991 9.656C730.581 10.1587 730.875 10.943 730.875 12.009V16H728.977ZM726.845 16.104C726.299 16.104 725.831 16.013 725.441 15.831C725.051 15.6403 724.752 15.3847 724.544 15.064C724.336 14.7433 724.232 14.3837 724.232 13.985C724.232 13.569 724.332 13.205 724.531 12.893C724.739 12.581 725.064 12.3383 725.506 12.165C725.948 11.983 726.525 11.892 727.235 11.892H729.094V13.075H727.456C726.98 13.075 726.65 13.153 726.468 13.309C726.295 13.465 726.208 13.66 726.208 13.894C726.208 14.154 726.308 14.362 726.507 14.518C726.715 14.6653 726.997 14.739 727.352 14.739C727.69 14.739 727.994 14.661 728.262 14.505C728.531 14.3403 728.726 14.102 728.847 13.79L729.159 14.726C729.012 15.1767 728.743 15.519 728.353 15.753C727.963 15.987 727.461 16.104 726.845 16.104ZM726.533 8.109L728.288 6.237H730.472L728.119 8.109H726.533Z" fill="black"/>
<path d="M1.98716 52V46.06L2.37416 46.483H0.565164V45.7H2.87816V52H1.98716ZM6.29922 45.628C6.86922 45.628 7.34922 45.751 7.73922 45.997C8.13522 46.243 8.43522 46.6 8.63922 47.068C8.84322 47.53 8.94522 48.097 8.94522 48.769C8.94522 49.483 8.81922 50.086 8.56722 50.578C8.31522 51.07 7.96722 51.442 7.52322 51.694C7.07922 51.946 6.56022 52.072 5.96622 52.072C5.67222 52.072 5.38722 52.042 5.11122 51.982C4.84122 51.922 4.60422 51.829 4.40022 51.703L4.74222 51.001C4.91022 51.109 5.09622 51.187 5.30022 51.235C5.51022 51.277 5.72922 51.298 5.95722 51.298C6.59322 51.298 7.10022 51.1 7.47822 50.704C7.85622 50.302 8.04522 49.708 8.04522 48.922C8.04522 48.796 8.03922 48.646 8.02722 48.472C8.01522 48.298 7.98822 48.127 7.94622 47.959L8.24322 48.265C8.15922 48.541 8.01822 48.775 7.82022 48.967C7.62822 49.153 7.39422 49.294 7.11822 49.39C6.84822 49.48 6.55122 49.525 6.22722 49.525C5.81322 49.525 5.44422 49.447 5.12022 49.291C4.79622 49.135 4.54122 48.916 4.35522 48.634C4.16922 48.346 4.07622 48.007 4.07622 47.617C4.07622 47.209 4.17222 46.858 4.36422 46.564C4.56222 46.264 4.82922 46.033 5.16522 45.871C5.50722 45.709 5.88522 45.628 6.29922 45.628ZM6.33522 46.357C6.06522 46.357 5.82522 46.408 5.61522 46.51C5.40522 46.612 5.24022 46.753 5.12022 46.933C5.00622 47.113 4.94922 47.329 4.94922 47.581C4.94922 47.953 5.07822 48.25 5.33622 48.472C5.59422 48.688 5.94222 48.796 6.38022 48.796C6.66822 48.796 6.92022 48.742 7.13622 48.634C7.35822 48.526 7.52922 48.379 7.64922 48.193C7.77522 48.007 7.83822 47.8 7.83822 47.572C7.83822 47.35 7.78122 47.149 7.66722 46.969C7.55322 46.789 7.38522 46.642 7.16322 46.528C6.94122 46.414 6.66522 46.357 6.33522 46.357ZM10.4049 48.418C10.2369 48.418 10.0929 48.361 9.97291 48.247C9.85291 48.127 9.79291 47.977 9.79291 47.797C9.79291 47.617 9.85291 47.47 9.97291 47.356C10.0929 47.242 10.2369 47.185 10.4049 47.185C10.5669 47.185 10.7049 47.242 10.8189 47.356C10.9389 47.47 10.9989 47.617 10.9989 47.797C10.9989 47.977 10.9389 48.127 10.8189 48.247C10.7049 48.361 10.5669 48.418 10.4049 48.418ZM10.4049 52.054C10.2369 52.054 10.0929 51.997 9.97291 51.883C9.85291 51.763 9.79291 51.613 9.79291 51.433C9.79291 51.253 9.85291 51.106 9.97291 50.992C10.0929 50.878 10.2369 50.821 10.4049 50.821C10.5669 50.821 10.7049 50.878 10.8189 50.992C10.9389 51.106 10.9989 51.253 10.9989 51.433C10.9989 51.613 10.9389 51.763 10.8189 51.883C10.7049 51.997 10.5669 52.054 10.4049 52.054ZM11.76 50.452V49.822L14.982 45.7H15.954L12.759 49.822L12.3 49.678H17.331V50.452H11.76ZM15.261 52V50.452L15.288 49.678V48.31H16.134V52H15.261ZM18.704 52V46.06L19.091 46.483H17.282V45.7H19.595V52H18.704ZM24.452 52V46.06L24.839 46.483H23.03V45.7H25.343V52H24.452ZM29.3671 52.072C28.8091 52.072 28.3321 51.949 27.9361 51.703C27.5401 51.457 27.2371 51.103 27.0271 50.641C26.8231 50.173 26.7211 49.603 26.7211 48.931C26.7211 48.217 26.8471 47.614 27.0991 47.122C27.3511 46.63 27.7021 46.258 28.1521 46.006C28.6021 45.754 29.1181 45.628 29.7001 45.628C30.0001 45.628 30.2851 45.658 30.5551 45.718C30.8311 45.778 31.0681 45.871 31.2661 45.997L30.9241 46.699C30.7621 46.585 30.5761 46.507 30.3661 46.465C30.1621 46.423 29.9461 46.402 29.7181 46.402C29.0761 46.402 28.5661 46.603 28.1881 47.005C27.8101 47.401 27.6211 47.992 27.6211 48.778C27.6211 48.904 27.6271 49.054 27.6391 49.228C27.6511 49.402 27.6811 49.573 27.7291 49.741L27.4231 49.435C27.5131 49.159 27.6541 48.928 27.8461 48.742C28.0441 48.55 28.2781 48.409 28.5481 48.319C28.8241 48.223 29.1211 48.175 29.4391 48.175C29.8591 48.175 30.2311 48.253 30.5551 48.409C30.8791 48.565 31.1341 48.787 31.3201 49.075C31.5061 49.357 31.5991 49.693 31.5991 50.083C31.5991 50.485 31.5001 50.836 31.3021 51.136C31.1041 51.436 30.8371 51.667 30.5011 51.829C30.1651 51.991 29.7871 52.072 29.3671 52.072ZM29.3311 51.343C29.6071 51.343 29.8471 51.292 30.0511 51.19C30.2611 51.088 30.4261 50.947 30.5461 50.767C30.6661 50.581 30.7261 50.365 30.7261 50.119C30.7261 49.747 30.5971 49.453 30.3391 49.237C30.0811 49.015 29.7301 48.904 29.2861 48.904C28.9981 48.904 28.7461 48.958 28.5301 49.066C28.3141 49.174 28.1431 49.321 28.0171 49.507C27.8971 49.687 27.8371 49.894 27.8371 50.128C27.8371 50.344 27.8941 50.545 28.0081 50.731C28.1221 50.911 28.2901 51.058 28.5121 51.172C28.7341 51.286 29.0071 51.343 29.3311 51.343ZM31.6796 52.9L34.6496 44.422H35.4326L32.4626 52.9H31.6796ZM37.9259 52.072C37.4339 52.072 36.9929 51.946 36.6029 51.694C36.2189 51.442 35.9129 51.076 35.6849 50.596C35.4629 50.116 35.3519 49.534 35.3519 48.85C35.3519 48.166 35.4629 47.584 35.6849 47.104C35.9129 46.624 36.2189 46.258 36.6029 46.006C36.9929 45.754 37.4339 45.628 37.9259 45.628C38.4119 45.628 38.8499 45.754 39.2399 46.006C39.6299 46.258 39.9359 46.624 40.1579 47.104C40.3799 47.584 40.4909 48.166 40.4909 48.85C40.4909 49.534 40.3799 50.116 40.1579 50.596C39.9359 51.076 39.6299 51.442 39.2399 51.694C38.8499 51.946 38.4119 52.072 37.9259 52.072ZM37.9259 51.271C38.2559 51.271 38.5439 51.181 38.7899 51.001C39.0419 50.821 39.2369 50.551 39.3749 50.191C39.5189 49.831 39.5909 49.384 39.5909 48.85C39.5909 48.316 39.5189 47.869 39.3749 47.509C39.2369 47.149 39.0419 46.879 38.7899 46.699C38.5439 46.519 38.2559 46.429 37.9259 46.429C37.5959 46.429 37.3049 46.519 37.0529 46.699C36.8009 46.879 36.6029 47.149 36.4589 47.509C36.3209 47.869 36.2519 48.316 36.2519 48.85C36.2519 49.384 36.3209 49.831 36.4589 50.191C36.6029 50.551 36.8009 50.821 37.0529 51.001C37.3049 51.181 37.5959 51.271 37.9259 51.271ZM42.3823 52L45.0553 46.078L45.2893 46.483H41.5453L41.9953 46.042V47.608H41.1313V45.7H45.8833V46.312L43.3363 52H42.3823ZM45.6103 52.9L48.5803 44.422H49.3633L46.3933 52.9H45.6103ZM49.3594 52V51.388L51.9244 48.913C52.1524 48.697 52.3204 48.508 52.4284 48.346C52.5424 48.178 52.6174 48.025 52.6534 47.887C52.6954 47.743 52.7164 47.605 52.7164 47.473C52.7164 47.149 52.6024 46.894 52.3744 46.708C52.1464 46.522 51.8134 46.429 51.3754 46.429C51.0394 46.429 50.7364 46.486 50.4664 46.6C50.1964 46.708 49.9624 46.879 49.7644 47.113L49.1524 46.582C49.3924 46.276 49.7134 46.042 50.1154 45.88C50.5234 45.712 50.9704 45.628 51.4564 45.628C51.8944 45.628 52.2754 45.7 52.5994 45.844C52.9234 45.982 53.1724 46.183 53.3464 46.447C53.5264 46.711 53.6164 47.023 53.6164 47.383C53.6164 47.587 53.5894 47.788 53.5354 47.986C53.4814 48.184 53.3794 48.394 53.2294 48.616C53.0794 48.838 52.8634 49.087 52.5814 49.363L50.2954 51.568L50.0794 51.217H53.8864V52H49.3594ZM57.1915 52.072C56.6995 52.072 56.2585 51.946 55.8685 51.694C55.4845 51.442 55.1785 51.076 54.9505 50.596C54.7285 50.116 54.6175 49.534 54.6175 48.85C54.6175 48.166 54.7285 47.584 54.9505 47.104C55.1785 46.624 55.4845 46.258 55.8685 46.006C56.2585 45.754 56.6995 45.628 57.1915 45.628C57.6775 45.628 58.1155 45.754 58.5055 46.006C58.8955 46.258 59.2015 46.624 59.4235 47.104C59.6455 47.584 59.7565 48.166 59.7565 48.85C59.7565 49.534 59.6455 50.116 59.4235 50.596C59.2015 51.076 58.8955 51.442 58.5055 51.694C58.1155 51.946 57.6775 52.072 57.1915 52.072ZM57.1915 51.271C57.5215 51.271 57.8095 51.181 58.0555 51.001C58.3075 50.821 58.5025 50.551 58.6405 50.191C58.7845 49.831 58.8565 49.384 58.8565 48.85C58.8565 48.316 58.7845 47.869 58.6405 47.509C58.5025 47.149 58.3075 46.879 58.0555 46.699C57.8095 46.519 57.5215 46.429 57.1915 46.429C56.8615 46.429 56.5705 46.519 56.3185 46.699C56.0665 46.879 55.8685 47.149 55.7245 47.509C55.5865 47.869 55.5175 48.316 55.5175 48.85C55.5175 49.384 55.5865 49.831 55.7245 50.191C55.8685 50.551 56.0665 50.821 56.3185 51.001C56.5705 51.181 56.8615 51.271 57.1915 51.271ZM60.5215 52V51.388L63.0865 48.913C63.3145 48.697 63.4825 48.508 63.5905 48.346C63.7045 48.178 63.7795 48.025 63.8155 47.887C63.8575 47.743 63.8785 47.605 63.8785 47.473C63.8785 47.149 63.7645 46.894 63.5365 46.708C63.3085 46.522 62.9755 46.429 62.5375 46.429C62.2015 46.429 61.8985 46.486 61.6285 46.6C61.3585 46.708 61.1245 46.879 60.9265 47.113L60.3145 46.582C60.5545 46.276 60.8755 46.042 61.2775 45.88C61.6855 45.712 62.1325 45.628 62.6185 45.628C63.0565 45.628 63.4375 45.7 63.7615 45.844C64.0855 45.982 64.3345 46.183 64.5085 46.447C64.6885 46.711 64.7785 47.023 64.7785 47.383C64.7785 47.587 64.7515 47.788 64.6975 47.986C64.6435 48.184 64.5415 48.394 64.3915 48.616C64.2415 48.838 64.0255 49.087 63.7435 49.363L61.4575 51.568L61.2415 51.217H65.0485V52H60.5215ZM67.7144 52.072C67.2704 52.072 66.8384 52.003 66.4184 51.865C66.0044 51.727 65.6654 51.541 65.4014 51.307L65.8154 50.596C66.0254 50.794 66.2984 50.956 66.6344 51.082C66.9704 51.208 67.3304 51.271 67.7144 51.271C68.1824 51.271 68.5454 51.172 68.8034 50.974C69.0674 50.77 69.1994 50.497 69.1994 50.155C69.1994 49.825 69.0734 49.561 68.8214 49.363C68.5754 49.159 68.1824 49.057 67.6424 49.057H67.1384V48.427L69.0104 46.123L69.1364 46.483H65.6894V45.7H69.8474V46.312L67.9844 48.607L67.5164 48.328H67.8134C68.5754 48.328 69.1454 48.499 69.5234 48.841C69.9074 49.183 70.0994 49.618 70.0994 50.146C70.0994 50.5 70.0124 50.824 69.8384 51.118C69.6644 51.412 69.4004 51.646 69.0464 51.82C68.6984 51.988 68.2544 52.072 67.7144 52.072Z" fill="black" fill-opacity="0.5"/>
<path d="M166.418 52V51.388L168.983 48.913C169.211 48.697 169.379 48.508 169.487 48.346C169.601 48.178 169.676 48.025 169.712 47.887C169.754 47.743 169.775 47.605 169.775 47.473C169.775 47.149 169.661 46.894 169.433 46.708C169.205 46.522 168.872 46.429 168.434 46.429C168.098 46.429 167.795 46.486 167.525 46.6C167.255 46.708 167.021 46.879 166.823 47.113L166.211 46.582C166.451 46.276 166.772 46.042 167.174 45.88C167.582 45.712 168.029 45.628 168.515 45.628C168.953 45.628 169.334 45.7 169.658 45.844C169.982 45.982 170.231 46.183 170.405 46.447C170.585 46.711 170.675 47.023 170.675 47.383C170.675 47.587 170.648 47.788 170.594 47.986C170.54 48.184 170.438 48.394 170.288 48.616C170.138 48.838 169.922 49.087 169.64 49.363L167.354 51.568L167.138 51.217H170.945V52H166.418ZM174.251 52.072C173.759 52.072 173.318 51.946 172.928 51.694C172.544 51.442 172.238 51.076 172.01 50.596C171.788 50.116 171.677 49.534 171.677 48.85C171.677 48.166 171.788 47.584 172.01 47.104C172.238 46.624 172.544 46.258 172.928 46.006C173.318 45.754 173.759 45.628 174.251 45.628C174.737 45.628 175.175 45.754 175.565 46.006C175.955 46.258 176.261 46.624 176.483 47.104C176.705 47.584 176.816 48.166 176.816 48.85C176.816 49.534 176.705 50.116 176.483 50.596C176.261 51.076 175.955 51.442 175.565 51.694C175.175 51.946 174.737 52.072 174.251 52.072ZM174.251 51.271C174.581 51.271 174.869 51.181 175.115 51.001C175.367 50.821 175.562 50.551 175.7 50.191C175.844 49.831 175.916 49.384 175.916 48.85C175.916 48.316 175.844 47.869 175.7 47.509C175.562 47.149 175.367 46.879 175.115 46.699C174.869 46.519 174.581 46.429 174.251 46.429C173.921 46.429 173.63 46.519 173.378 46.699C173.126 46.879 172.928 47.149 172.784 47.509C172.646 47.869 172.577 48.316 172.577 48.85C172.577 49.384 172.646 49.831 172.784 50.191C172.928 50.551 173.126 50.821 173.378 51.001C173.63 51.181 173.921 51.271 174.251 51.271ZM178.274 48.418C178.106 48.418 177.962 48.361 177.842 48.247C177.722 48.127 177.662 47.977 177.662 47.797C177.662 47.617 177.722 47.47 177.842 47.356C177.962 47.242 178.106 47.185 178.274 47.185C178.436 47.185 178.574 47.242 178.688 47.356C178.808 47.47 178.868 47.617 178.868 47.797C178.868 47.977 178.808 48.127 178.688 48.247C178.574 48.361 178.436 48.418 178.274 48.418ZM178.274 52.054C178.106 52.054 177.962 51.997 177.842 51.883C177.722 51.763 177.662 51.613 177.662 51.433C177.662 51.253 177.722 51.106 177.842 50.992C177.962 50.878 178.106 50.821 178.274 50.821C178.436 50.821 178.574 50.878 178.688 50.992C178.808 51.106 178.868 51.253 178.868 51.433C178.868 51.613 178.808 51.763 178.688 51.883C178.574 51.997 178.436 52.054 178.274 52.054ZM180.781 52V46.06L181.168 46.483H179.359V45.7H181.672V52H180.781ZM184.112 52V46.06L184.499 46.483H182.69V45.7H185.003V52H184.112ZM189.86 52V46.06L190.247 46.483H188.438V45.7H190.751V52H189.86ZM194.775 52.072C194.217 52.072 193.74 51.949 193.344 51.703C192.948 51.457 192.645 51.103 192.435 50.641C192.231 50.173 192.129 49.603 192.129 48.931C192.129 48.217 192.255 47.614 192.507 47.122C192.759 46.63 193.11 46.258 193.56 46.006C194.01 45.754 194.526 45.628 195.108 45.628C195.408 45.628 195.693 45.658 195.963 45.718C196.239 45.778 196.476 45.871 196.674 45.997L196.332 46.699C196.17 46.585 195.984 46.507 195.774 46.465C195.57 46.423 195.354 46.402 195.126 46.402C194.484 46.402 193.974 46.603 193.596 47.005C193.218 47.401 193.029 47.992 193.029 48.778C193.029 48.904 193.035 49.054 193.047 49.228C193.059 49.402 193.089 49.573 193.137 49.741L192.831 49.435C192.921 49.159 193.062 48.928 193.254 48.742C193.452 48.55 193.686 48.409 193.956 48.319C194.232 48.223 194.529 48.175 194.847 48.175C195.267 48.175 195.639 48.253 195.963 48.409C196.287 48.565 196.542 48.787 196.728 49.075C196.914 49.357 197.007 49.693 197.007 50.083C197.007 50.485 196.908 50.836 196.71 51.136C196.512 51.436 196.245 51.667 195.909 51.829C195.573 51.991 195.195 52.072 194.775 52.072ZM194.739 51.343C195.015 51.343 195.255 51.292 195.459 51.19C195.669 51.088 195.834 50.947 195.954 50.767C196.074 50.581 196.134 50.365 196.134 50.119C196.134 49.747 196.005 49.453 195.747 49.237C195.489 49.015 195.138 48.904 194.694 48.904C194.406 48.904 194.154 48.958 193.938 49.066C193.722 49.174 193.551 49.321 193.425 49.507C193.305 49.687 193.245 49.894 193.245 50.128C193.245 50.344 193.302 50.545 193.416 50.731C193.53 50.911 193.698 51.058 193.92 51.172C194.142 51.286 194.415 51.343 194.739 51.343ZM197.087 52.9L200.057 44.422H200.84L197.87 52.9H197.087ZM203.334 52.072C202.842 52.072 202.401 51.946 202.011 51.694C201.627 51.442 201.321 51.076 201.093 50.596C200.871 50.116 200.76 49.534 200.76 48.85C200.76 48.166 200.871 47.584 201.093 47.104C201.321 46.624 201.627 46.258 202.011 46.006C202.401 45.754 202.842 45.628 203.334 45.628C203.82 45.628 204.258 45.754 204.648 46.006C205.038 46.258 205.344 46.624 205.566 47.104C205.788 47.584 205.899 48.166 205.899 48.85C205.899 49.534 205.788 50.116 205.566 50.596C205.344 51.076 205.038 51.442 204.648 51.694C204.258 51.946 203.82 52.072 203.334 52.072ZM203.334 51.271C203.664 51.271 203.952 51.181 204.198 51.001C204.45 50.821 204.645 50.551 204.783 50.191C204.927 49.831 204.999 49.384 204.999 48.85C204.999 48.316 204.927 47.869 204.783 47.509C204.645 47.149 204.45 46.879 204.198 46.699C203.952 46.519 203.664 46.429 203.334 46.429C203.004 46.429 202.713 46.519 202.461 46.699C202.209 46.879 202.011 47.149 201.867 47.509C201.729 47.869 201.66 48.316 201.66 48.85C201.66 49.384 201.729 49.831 201.867 50.191C202.011 50.551 202.209 50.821 202.461 51.001C202.713 51.181 203.004 51.271 203.334 51.271ZM207.79 52L210.463 46.078L210.697 46.483H206.953L207.403 46.042V47.608H206.539V45.7H211.291V46.312L208.744 52H207.79ZM211.018 52.9L213.988 44.422H214.771L211.801 52.9H211.018ZM214.767 52V51.388L217.332 48.913C217.56 48.697 217.728 48.508 217.836 48.346C217.95 48.178 218.025 48.025 218.061 47.887C218.103 47.743 218.124 47.605 218.124 47.473C218.124 47.149 218.01 46.894 217.782 46.708C217.554 46.522 217.221 46.429 216.783 46.429C216.447 46.429 216.144 46.486 215.874 46.6C215.604 46.708 215.37 46.879 215.172 47.113L214.56 46.582C214.8 46.276 215.121 46.042 215.523 45.88C215.931 45.712 216.378 45.628 216.864 45.628C217.302 45.628 217.683 45.7 218.007 45.844C218.331 45.982 218.58 46.183 218.754 46.447C218.934 46.711 219.024 47.023 219.024 47.383C219.024 47.587 218.997 47.788 218.943 47.986C218.889 48.184 218.787 48.394 218.637 48.616C218.487 48.838 218.271 49.087 217.989 49.363L215.703 51.568L215.487 51.217H219.294V52H214.767ZM222.599 52.072C222.107 52.072 221.666 51.946 221.276 51.694C220.892 51.442 220.586 51.076 220.358 50.596C220.136 50.116 220.025 49.534 220.025 48.85C220.025 48.166 220.136 47.584 220.358 47.104C220.586 46.624 220.892 46.258 221.276 46.006C221.666 45.754 222.107 45.628 222.599 45.628C223.085 45.628 223.523 45.754 223.913 46.006C224.303 46.258 224.609 46.624 224.831 47.104C225.053 47.584 225.164 48.166 225.164 48.85C225.164 49.534 225.053 50.116 224.831 50.596C224.609 51.076 224.303 51.442 223.913 51.694C223.523 51.946 223.085 52.072 222.599 52.072ZM222.599 51.271C222.929 51.271 223.217 51.181 223.463 51.001C223.715 50.821 223.91 50.551 224.048 50.191C224.192 49.831 224.264 49.384 224.264 48.85C224.264 48.316 224.192 47.869 224.048 47.509C223.91 47.149 223.715 46.879 223.463 46.699C223.217 46.519 222.929 46.429 222.599 46.429C222.269 46.429 221.978 46.519 221.726 46.699C221.474 46.879 221.276 47.149 221.132 47.509C220.994 47.869 220.925 48.316 220.925 48.85C220.925 49.384 220.994 49.831 221.132 50.191C221.276 50.551 221.474 50.821 221.726 51.001C221.978 51.181 222.269 51.271 222.599 51.271ZM225.929 52V51.388L228.494 48.913C228.722 48.697 228.89 48.508 228.998 48.346C229.112 48.178 229.187 48.025 229.223 47.887C229.265 47.743 229.286 47.605 229.286 47.473C229.286 47.149 229.172 46.894 228.944 46.708C228.716 46.522 228.383 46.429 227.945 46.429C227.609 46.429 227.306 46.486 227.036 46.6C226.766 46.708 226.532 46.879 226.334 47.113L225.722 46.582C225.962 46.276 226.283 46.042 226.685 45.88C227.093 45.712 227.54 45.628 228.026 45.628C228.464 45.628 228.845 45.7 229.169 45.844C229.493 45.982 229.742 46.183 229.916 46.447C230.096 46.711 230.186 47.023 230.186 47.383C230.186 47.587 230.159 47.788 230.105 47.986C230.051 48.184 229.949 48.394 229.799 48.616C229.649 48.838 229.433 49.087 229.151 49.363L226.865 51.568L226.649 51.217H230.456V52H225.929ZM233.122 52.072C232.678 52.072 232.246 52.003 231.826 51.865C231.412 51.727 231.073 51.541 230.809 51.307L231.223 50.596C231.433 50.794 231.706 50.956 232.042 51.082C232.378 51.208 232.738 51.271 233.122 51.271C233.59 51.271 233.953 51.172 234.211 50.974C234.475 50.77 234.607 50.497 234.607 50.155C234.607 49.825 234.481 49.561 234.229 49.363C233.983 49.159 233.59 49.057 233.05 49.057H232.546V48.427L234.418 46.123L234.544 46.483H231.097V45.7H235.255V46.312L233.392 48.607L232.924 48.328H233.221C233.983 48.328 234.553 48.499 234.931 48.841C235.315 49.183 235.507 49.618 235.507 50.146C235.507 50.5 235.42 50.824 235.246 51.118C235.072 51.412 234.808 51.646 234.454 51.82C234.106 51.988 233.662 52.072 233.122 52.072Z" fill="black" fill-opacity="0.5"/>
</svg>
