<svg width="730" height="66" viewBox="0 0 730 66" fill="none" xmlns="http://www.w3.org/2000/svg">
<rect x="393" y="31" width="280" height="7" fill="#D9D9D9"/>
<rect x="63" y="31" width="280" height="7" fill="#B414FF"/>
<circle cx="33" cy="33" r="31" fill="white" stroke="#B414FF" stroke-width="4"/>
<g clip-path="url(#clip0_104_718)">
<path d="M46.0417 19.9583V45.0417H20.9583V19.9583H46.0417ZM48.0125 16.375H18.9875C18.0917 16.375 17.375 17.0917 17.375 17.9875V47.0125C17.375 47.7292 18.0917 48.625 18.9875 48.625H48.0125C48.7292 48.625 49.625 47.7292 49.625 47.0125V17.9875C49.625 17.0917 48.7292 16.375 48.0125 16.375ZM31.7083 23.5417H42.4583V27.125H31.7083V23.5417ZM31.7083 30.7083H42.4583V34.2917H31.7083V30.7083ZM31.7083 37.875H42.4583V41.4583H31.7083V37.875ZM24.5417 23.5417H28.125V27.125H24.5417V23.5417ZM24.5417 30.7083H28.125V34.2917H24.5417V30.7083ZM24.5417 37.875H28.125V41.4583H24.5417V37.875Z" fill="#B414FF"/>
</g>
<circle cx="199" cy="33" r="31" fill="white" stroke="#B414FF" stroke-width="4"/>
<g clip-path="url(#clip1_104_718)">
<path d="M186.958 25.3334H190.542V39.6667H186.958V25.3334ZM199.5 25.3334H194.125C193.14 25.3334 192.333 26.1396 192.333 27.125V37.875C192.333 38.8605 193.14 39.6667 194.125 39.6667H199.5C200.486 39.6667 201.292 38.8605 201.292 37.875V27.125C201.292 26.1396 200.486 25.3334 199.5 25.3334ZM197.708 36.0834H195.917V28.9167H197.708V36.0834ZM210.25 25.3334H204.875C203.89 25.3334 203.083 26.1396 203.083 27.125V37.875C203.083 38.8605 203.89 39.6667 204.875 39.6667H210.25C211.236 39.6667 212.042 38.8605 212.042 37.875V27.125C212.042 26.1396 211.236 25.3334 210.25 25.3334ZM208.458 36.0834H206.667V28.9167H208.458V36.0834Z" fill="#B414FF"/>
<path d="M181.583 18.1666V46.8333H217.417V18.1666H181.583ZM185.167 43.25V21.75H213.833V43.25H185.167Z" fill="#B414FF"/>
</g>
<circle cx="365" cy="33" r="31" fill="#B414FF" stroke="#B414FF" stroke-width="4"/>
<g clip-path="url(#clip2_104_718)">
<path d="M380.833 26.3333H375.458V19.1666H350.375C348.404 19.1666 346.792 20.7791 346.792 22.75V42.4583H350.375C350.375 45.4325 352.776 47.8333 355.75 47.8333C358.724 47.8333 361.125 45.4325 361.125 42.4583H371.875C371.875 45.4325 374.276 47.8333 377.25 47.8333C380.224 47.8333 382.625 45.4325 382.625 42.4583H386.208V33.5L380.833 26.3333ZM355.75 45.1458C354.263 45.1458 353.062 43.9454 353.062 42.4583C353.062 40.9712 354.263 39.7708 355.75 39.7708C357.237 39.7708 358.437 40.9712 358.437 42.4583C358.437 43.9454 357.237 45.1458 355.75 45.1458ZM379.937 29.0208L383.449 33.5H375.458V29.0208H379.937ZM377.25 45.1458C375.763 45.1458 374.562 43.9454 374.562 42.4583C374.562 40.9712 375.763 39.7708 377.25 39.7708C378.737 39.7708 379.937 40.9712 379.937 42.4583C379.937 43.9454 378.737 45.1458 377.25 45.1458Z" fill="white"/>
</g>
<circle cx="531" cy="33" r="31" fill="white" stroke="#D9D9D9" stroke-width="4"/>
<g clip-path="url(#clip3_104_718)">
<path d="M547 25C547 22.8 545.2 21 543 21H537V25H543V30.3L536.04 39H529V29H521C516.58 29 513 32.58 513 37V43H517C517 46.32 519.68 49 523 49C526.32 49 529 46.32 529 43H537.96L547 31.7V25ZM523 45C521.9 45 521 44.1 521 43H525C525 44.1 524.1 45 523 45Z" fill="#D9D9D9"/>
<path d="M529 23H519V27H529V23Z" fill="#D9D9D9"/>
<path d="M547 37C543.68 37 541 39.68 541 43C541 46.32 543.68 49 547 49C550.32 49 553 46.32 553 43C553 39.68 550.32 37 547 37ZM547 45C545.9 45 545 44.1 545 43C545 41.9 545.9 41 547 41C548.1 41 549 41.9 549 43C549 44.1 548.1 45 547 45Z" fill="#D9D9D9"/>
</g>
<circle cx="697" cy="33" r="31" fill="white" stroke="#D9D9D9" stroke-width="4"/>
<path d="M715.417 27.555L702.535 26.4442L697.5 14.5834L692.466 26.4621L679.583 27.555L689.366 36.0296L686.428 48.625L697.5 41.9421L708.573 48.625L705.652 36.0296L715.417 27.555ZM697.5 38.5917L690.763 42.6588L692.555 34.9905L686.607 29.8305L694.454 29.1496L697.5 21.9292L700.564 29.1675L708.411 29.8484L702.463 35.0084L704.255 42.6767L697.5 38.5917Z" fill="#D9D9D9"/>
<defs>
<clipPath id="clip0_104_718">
<rect width="43" height="43" fill="white" transform="translate(12 11)"/>
</clipPath>
<clipPath id="clip1_104_718">
<rect width="43" height="43" fill="white" transform="translate(178 11)"/>
</clipPath>
<clipPath id="clip2_104_718">
<rect width="43" height="43" fill="white" transform="translate(345 12)"/>
</clipPath>
<clipPath id="clip3_104_718">
<rect width="48" height="48" fill="white" transform="translate(509 11)"/>
</clipPath>
</defs>
</svg>
