<svg width="980" height="68" viewBox="0 0 980 68" fill="none" xmlns="http://www.w3.org/2000/svg">
<rect width="980" height="68" fill="white"/>
<path d="M24.22 37V25.2H19.58V23H31.46V25.2H26.82V37H24.22ZM39.1848 37V34.84L39.0448 34.38V30.6C39.0448 29.8667 38.8248 29.3 38.3848 28.9C37.9448 28.4867 37.2782 28.28 36.3848 28.28C35.7848 28.28 35.1915 28.3733 34.6048 28.56C34.0315 28.7467 33.5448 29.0067 33.1448 29.34L32.1648 27.52C32.7382 27.08 33.4182 26.7533 34.2048 26.54C35.0048 26.3133 35.8315 26.2 36.6848 26.2C38.2315 26.2 39.4248 26.5733 40.2648 27.32C41.1182 28.0533 41.5448 29.1933 41.5448 30.74V37H39.1848ZM35.8248 37.14C35.0248 37.14 34.3248 37.0067 33.7248 36.74C33.1248 36.46 32.6582 36.08 32.3248 35.6C32.0048 35.1067 31.8448 34.5533 31.8448 33.94C31.8448 33.34 31.9848 32.8 32.2648 32.32C32.5582 31.84 33.0315 31.46 33.6848 31.18C34.3382 30.9 35.2048 30.76 36.2848 30.76H39.3848V32.42H36.4648C35.6115 32.42 35.0382 32.56 34.7448 32.84C34.4515 33.1067 34.3048 33.44 34.3048 33.84C34.3048 34.2933 34.4848 34.6533 34.8448 34.92C35.2048 35.1867 35.7048 35.32 36.3448 35.32C36.9582 35.32 37.5048 35.18 37.9848 34.9C38.4782 34.62 38.8315 34.2067 39.0448 33.66L39.4648 35.16C39.2248 35.7867 38.7915 36.2733 38.1648 36.62C37.5515 36.9667 36.7715 37.14 35.8248 37.14ZM33.0848 24.86L35.7848 22.72H38.0248L40.7248 24.86H38.6448L35.9648 23.16H37.8448L35.1648 24.86H33.0848ZM39.0848 23.02L41.3648 20.68H44.0448L41.0048 23.02H39.0848ZM48.7733 37.14C47.5999 37.14 46.6933 36.84 46.0533 36.24C45.4133 35.6267 45.0933 34.7267 45.0933 33.54V23.96H47.5933V33.48C47.5933 33.9867 47.7199 34.38 47.9733 34.66C48.2399 34.94 48.6066 35.08 49.0733 35.08C49.6333 35.08 50.0999 34.9333 50.4733 34.64L51.1733 36.42C50.8799 36.66 50.5199 36.84 50.0933 36.96C49.6666 37.08 49.2266 37.14 48.7733 37.14ZM43.3333 28.4V26.4H50.4533V28.4H43.3333ZM63.6572 37.14C62.5372 37.14 61.5372 36.9067 60.6572 36.44C59.7905 35.96 59.1105 35.3067 58.6172 34.48C58.1239 33.6533 57.8772 32.7133 57.8772 31.66C57.8772 30.5933 58.1239 29.6533 58.6172 28.84C59.1105 28.0133 59.7905 27.3667 60.6572 26.9C61.5372 26.4333 62.5372 26.2 63.6572 26.2C64.6972 26.2 65.6105 26.4133 66.3972 26.84C67.1972 27.2533 67.8039 27.8667 68.2172 28.68L66.2972 29.8C65.9772 29.2933 65.5839 28.92 65.1172 28.68C64.6639 28.44 64.1705 28.32 63.6372 28.32C63.0239 28.32 62.4705 28.4533 61.9772 28.72C61.4839 28.9867 61.0972 29.3733 60.8172 29.88C60.5372 30.3733 60.3972 30.9667 60.3972 31.66C60.3972 32.3533 60.5372 32.9533 60.8172 33.46C61.0972 33.9533 61.4839 34.3333 61.9772 34.6C62.4705 34.8667 63.0239 35 63.6372 35C64.1705 35 64.6639 34.88 65.1172 34.64C65.5839 34.4 65.9772 34.0267 66.2972 33.52L68.2172 34.64C67.8039 35.44 67.1972 36.06 66.3972 36.5C65.6105 36.9267 64.6972 37.14 63.6572 37.14ZM76.9583 37V34.84L76.8183 34.38V30.6C76.8183 29.8667 76.5983 29.3 76.1583 28.9C75.7183 28.4867 75.0516 28.28 74.1583 28.28C73.5583 28.28 72.9649 28.3733 72.3783 28.56C71.8049 28.7467 71.3183 29.0067 70.9183 29.34L69.9383 27.52C70.5116 27.08 71.1916 26.7533 71.9783 26.54C72.7783 26.3133 73.6049 26.2 74.4583 26.2C76.0049 26.2 77.1983 26.5733 78.0383 27.32C78.8916 28.0533 79.3183 29.1933 79.3183 30.74V37H76.9583ZM73.5983 37.14C72.7983 37.14 72.0983 37.0067 71.4983 36.74C70.8983 36.46 70.4316 36.08 70.0983 35.6C69.7783 35.1067 69.6183 34.5533 69.6183 33.94C69.6183 33.34 69.7583 32.8 70.0383 32.32C70.3316 31.84 70.8049 31.46 71.4583 31.18C72.1116 30.9 72.9783 30.76 74.0583 30.76H77.1583V32.42H74.2383C73.3849 32.42 72.8116 32.56 72.5183 32.84C72.2249 33.1067 72.0783 33.44 72.0783 33.84C72.0783 34.2933 72.2583 34.6533 72.6183 34.92C72.9783 35.1867 73.4783 35.32 74.1183 35.32C74.7316 35.32 75.2783 35.18 75.7583 34.9C76.2516 34.62 76.6049 34.2067 76.8183 33.66L77.2383 35.16C76.9983 35.7867 76.5649 36.2733 75.9383 36.62C75.3249 36.9667 74.5449 37.14 73.5983 37.14ZM75.1783 25.06L74.3583 24.14C74.7449 23.9533 75.0183 23.76 75.1783 23.56C75.3516 23.3467 75.4383 23.1133 75.4383 22.86C75.4383 22.5933 75.3449 22.38 75.1583 22.22C74.9716 22.06 74.7316 21.98 74.4383 21.98C74.0249 21.98 73.6249 22.1067 73.2383 22.36L72.6983 21.26C72.9783 21.06 73.2916 20.9067 73.6383 20.8C73.9849 20.6933 74.3383 20.64 74.6983 20.64C75.3516 20.64 75.8783 20.8267 76.2783 21.2C76.6916 21.56 76.8983 22.04 76.8983 22.64C76.8983 23.1867 76.7583 23.66 76.4783 24.06C76.1983 24.46 75.7649 24.7933 75.1783 25.06Z" fill="#B414FF"/>
<line y1="49.5" x2="101" y2="49.5" stroke="#B414FF"/>
<path d="M144.165 37.2C143.099 37.2 142.105 37.0267 141.185 36.68C140.279 36.32 139.485 35.82 138.805 35.18C138.139 34.5267 137.619 33.76 137.245 32.88C136.872 32 136.685 31.04 136.685 30C136.685 28.96 136.872 28 137.245 27.12C137.619 26.24 138.145 25.48 138.825 24.84C139.505 24.1867 140.299 23.6867 141.205 23.34C142.112 22.98 143.105 22.8 144.185 22.8C145.332 22.8 146.379 23 147.325 23.4C148.272 23.7867 149.072 24.3667 149.725 25.14L148.045 26.72C147.539 26.1733 146.972 25.7667 146.345 25.5C145.719 25.22 145.039 25.08 144.305 25.08C143.572 25.08 142.899 25.2 142.285 25.44C141.685 25.68 141.159 26.02 140.705 26.46C140.265 26.9 139.919 27.42 139.665 28.02C139.425 28.62 139.305 29.28 139.305 30C139.305 30.72 139.425 31.38 139.665 31.98C139.919 32.58 140.265 33.1 140.705 33.54C141.159 33.98 141.685 34.32 142.285 34.56C142.899 34.8 143.572 34.92 144.305 34.92C145.039 34.92 145.719 34.7867 146.345 34.52C146.972 34.24 147.539 33.82 148.045 33.26L149.725 34.86C149.072 35.62 148.272 36.2 147.325 36.6C146.379 37 145.325 37.2 144.165 37.2ZM158.036 26.2C158.89 26.2 159.65 26.3667 160.316 26.7C160.996 27.0333 161.53 27.5467 161.916 28.24C162.303 28.92 162.496 29.8 162.496 30.88V37H159.996V31.2C159.996 30.2533 159.77 29.5467 159.316 29.08C158.876 28.6133 158.256 28.38 157.456 28.38C156.87 28.38 156.35 28.5 155.896 28.74C155.443 28.98 155.09 29.34 154.836 29.82C154.596 30.2867 154.476 30.88 154.476 31.6V37H151.976V22.16H154.476V29.2L153.936 28.32C154.31 27.64 154.85 27.12 155.556 26.76C156.276 26.3867 157.103 26.2 158.036 26.2ZM170.487 37.14C169.394 37.14 168.421 36.9067 167.567 36.44C166.714 35.96 166.041 35.3067 165.547 34.48C165.054 33.6533 164.807 32.7133 164.807 31.66C164.807 30.5933 165.054 29.6533 165.547 28.84C166.041 28.0133 166.714 27.3667 167.567 26.9C168.434 26.4333 169.421 26.2 170.527 26.2C170.874 26.2 171.174 26.2133 171.427 26.24C171.681 26.2533 171.921 26.2733 172.147 26.3C172.387 26.3267 172.641 26.34 172.907 26.34C173.401 26.34 173.754 26.2133 173.967 25.96C174.194 25.7067 174.307 25.3933 174.307 25.02C174.307 24.78 174.267 24.56 174.187 24.36C174.107 24.1467 174.007 23.9533 173.887 23.78L175.407 23.22C175.581 23.4733 175.727 23.76 175.847 24.08C175.967 24.4 176.027 24.74 176.027 25.1C176.027 25.6733 175.894 26.1733 175.627 26.6C175.361 27.0267 174.981 27.3533 174.487 27.58C173.994 27.8067 173.401 27.92 172.707 27.92C172.454 27.92 172.201 27.9067 171.947 27.88C171.707 27.8533 171.454 27.82 171.187 27.78L172.747 26.6C173.787 27 174.621 27.6467 175.247 28.54C175.874 29.42 176.187 30.46 176.187 31.66C176.187 32.7133 175.941 33.6533 175.447 34.48C174.967 35.3067 174.294 35.96 173.427 36.44C172.574 36.9067 171.594 37.14 170.487 37.14ZM170.487 35C171.087 35 171.627 34.8667 172.107 34.6C172.587 34.3333 172.967 33.9467 173.247 33.44C173.527 32.9333 173.667 32.34 173.667 31.66C173.667 30.9667 173.527 30.3733 173.247 29.88C172.981 29.3733 172.607 28.9867 172.127 28.72C171.647 28.4533 171.101 28.32 170.487 28.32C169.887 28.32 169.347 28.4533 168.867 28.72C168.401 28.9867 168.027 29.3733 167.747 29.88C167.467 30.3733 167.327 30.9667 167.327 31.66C167.327 32.34 167.467 32.9333 167.747 33.44C168.027 33.9467 168.401 34.3333 168.867 34.6C169.347 34.8667 169.887 35 170.487 35ZM170.007 24.86L166.527 22.12H169.467L172.167 24.86H170.007ZM188.125 37.14C186.952 37.14 186.045 36.84 185.405 36.24C184.765 35.6267 184.445 34.7267 184.445 33.54V23.96H186.945V33.48C186.945 33.9867 187.072 34.38 187.325 34.66C187.592 34.94 187.959 35.08 188.425 35.08C188.985 35.08 189.452 34.9333 189.825 34.64L190.525 36.42C190.232 36.66 189.872 36.84 189.445 36.96C189.019 37.08 188.579 37.14 188.125 37.14ZM182.685 28.4V26.4H189.805V28.4H182.685ZM198.642 26.2C199.495 26.2 200.255 26.3667 200.922 26.7C201.602 27.0333 202.135 27.5467 202.522 28.24C202.909 28.92 203.102 29.8 203.102 30.88V37H200.602V31.2C200.602 30.2533 200.375 29.5467 199.922 29.08C199.482 28.6133 198.862 28.38 198.062 28.38C197.475 28.38 196.955 28.5 196.502 28.74C196.049 28.98 195.695 29.34 195.442 29.82C195.202 30.2867 195.082 30.88 195.082 31.6V37H192.582V22.16H195.082V29.2L194.542 28.32C194.915 27.64 195.455 27.12 196.162 26.76C196.882 26.3867 197.709 26.2 198.642 26.2ZM212.853 37V34.84L212.713 34.38V30.6C212.713 29.8667 212.493 29.3 212.053 28.9C211.613 28.4867 210.947 28.28 210.053 28.28C209.453 28.28 208.86 28.3733 208.273 28.56C207.7 28.7467 207.213 29.0067 206.813 29.34L205.833 27.52C206.407 27.08 207.087 26.7533 207.873 26.54C208.673 26.3133 209.5 26.2 210.353 26.2C211.9 26.2 213.093 26.5733 213.933 27.32C214.787 28.0533 215.213 29.1933 215.213 30.74V37H212.853ZM209.493 37.14C208.693 37.14 207.993 37.0067 207.393 36.74C206.793 36.46 206.327 36.08 205.993 35.6C205.673 35.1067 205.513 34.5533 205.513 33.94C205.513 33.34 205.653 32.8 205.933 32.32C206.227 31.84 206.7 31.46 207.353 31.18C208.007 30.9 208.873 30.76 209.953 30.76H213.053V32.42H210.133C209.28 32.42 208.707 32.56 208.413 32.84C208.12 33.1067 207.973 33.44 207.973 33.84C207.973 34.2933 208.153 34.6533 208.513 34.92C208.873 35.1867 209.373 35.32 210.013 35.32C210.627 35.32 211.173 35.18 211.653 34.9C212.147 34.62 212.5 34.2067 212.713 33.66L213.133 35.16C212.893 35.7867 212.46 36.2733 211.833 36.62C211.22 36.9667 210.44 37.14 209.493 37.14ZM224.482 26.2C225.335 26.2 226.095 26.3667 226.762 26.7C227.442 27.0333 227.975 27.5467 228.362 28.24C228.748 28.92 228.942 29.8 228.942 30.88V37H226.442V31.2C226.442 30.2533 226.215 29.5467 225.762 29.08C225.322 28.6133 224.702 28.38 223.902 28.38C223.315 28.38 222.795 28.5 222.342 28.74C221.888 28.98 221.535 29.34 221.282 29.82C221.042 30.2867 220.922 30.88 220.922 31.6V37H218.422V26.32H220.802V29.2L220.382 28.32C220.755 27.64 221.295 27.12 222.002 26.76C222.722 26.3867 223.548 26.2 224.482 26.2ZM238.173 26.2C239.026 26.2 239.786 26.3667 240.453 26.7C241.133 27.0333 241.666 27.5467 242.053 28.24C242.44 28.92 242.633 29.8 242.633 30.88V37H240.133V31.2C240.133 30.2533 239.906 29.5467 239.453 29.08C239.013 28.6133 238.393 28.38 237.593 28.38C237.006 28.38 236.486 28.5 236.033 28.74C235.58 28.98 235.226 29.34 234.973 29.82C234.733 30.2867 234.613 30.88 234.613 31.6V37H232.113V22.16H234.613V29.2L234.073 28.32C234.446 27.64 234.986 27.12 235.693 26.76C236.413 26.3867 237.24 26.2 238.173 26.2ZM255.352 37.14C254.179 37.14 253.272 36.84 252.632 36.24C251.992 35.6267 251.672 34.7267 251.672 33.54V23.96H254.172V33.48C254.172 33.9867 254.299 34.38 254.552 34.66C254.819 34.94 255.185 35.08 255.652 35.08C256.212 35.08 256.679 34.9333 257.052 34.64L257.752 36.42C257.459 36.66 257.099 36.84 256.672 36.96C256.245 37.08 255.805 37.14 255.352 37.14ZM249.912 28.4V26.4H257.032V28.4H249.912ZM264.257 37.14C263.164 37.14 262.19 36.9067 261.337 36.44C260.484 35.96 259.81 35.3067 259.317 34.48C258.824 33.6533 258.577 32.7133 258.577 31.66C258.577 30.5933 258.824 29.6533 259.317 28.84C259.81 28.0133 260.484 27.3667 261.337 26.9C262.19 26.4333 263.164 26.2 264.257 26.2C265.364 26.2 266.344 26.4333 267.197 26.9C268.064 27.3667 268.737 28.0067 269.217 28.82C269.71 29.6333 269.957 30.58 269.957 31.66C269.957 32.7133 269.71 33.6533 269.217 34.48C268.737 35.3067 268.064 35.96 267.197 36.44C266.344 36.9067 265.364 37.14 264.257 37.14ZM264.257 35C264.87 35 265.417 34.8667 265.897 34.6C266.377 34.3333 266.75 33.9467 267.017 33.44C267.297 32.9333 267.437 32.34 267.437 31.66C267.437 30.9667 267.297 30.3733 267.017 29.88C266.75 29.3733 266.377 28.9867 265.897 28.72C265.417 28.4533 264.877 28.32 264.277 28.32C263.664 28.32 263.117 28.4533 262.637 28.72C262.17 28.9867 261.797 29.3733 261.517 29.88C261.237 30.3733 261.097 30.9667 261.097 31.66C261.097 32.34 261.237 32.9333 261.517 33.44C261.797 33.9467 262.17 34.3333 262.637 34.6C263.117 34.8667 263.657 35 264.257 35ZM278.791 37V34.84L278.651 34.38V30.6C278.651 29.8667 278.431 29.3 277.991 28.9C277.551 28.4867 276.884 28.28 275.991 28.28C275.391 28.28 274.797 28.3733 274.211 28.56C273.637 28.7467 273.151 29.0067 272.751 29.34L271.771 27.52C272.344 27.08 273.024 26.7533 273.811 26.54C274.611 26.3133 275.437 26.2 276.291 26.2C277.837 26.2 279.031 26.5733 279.871 27.32C280.724 28.0533 281.151 29.1933 281.151 30.74V37H278.791ZM275.431 37.14C274.631 37.14 273.931 37.0067 273.331 36.74C272.731 36.46 272.264 36.08 271.931 35.6C271.611 35.1067 271.451 34.5533 271.451 33.94C271.451 33.34 271.591 32.8 271.871 32.32C272.164 31.84 272.637 31.46 273.291 31.18C273.944 30.9 274.811 30.76 275.891 30.76H278.991V32.42H276.071C275.217 32.42 274.644 32.56 274.351 32.84C274.057 33.1067 273.911 33.44 273.911 33.84C273.911 34.2933 274.091 34.6533 274.451 34.92C274.811 35.1867 275.311 35.32 275.951 35.32C276.564 35.32 277.111 35.18 277.591 34.9C278.084 34.62 278.437 34.2067 278.651 33.66L279.071 35.16C278.831 35.7867 278.397 36.2733 277.771 36.62C277.157 36.9667 276.377 37.14 275.431 37.14ZM274.831 24.86L277.531 22.12H280.471L276.991 24.86H274.831ZM290.419 26.2C291.273 26.2 292.033 26.3667 292.699 26.7C293.379 27.0333 293.913 27.5467 294.299 28.24C294.686 28.92 294.879 29.8 294.879 30.88V37H292.379V31.2C292.379 30.2533 292.153 29.5467 291.699 29.08C291.259 28.6133 290.639 28.38 289.839 28.38C289.253 28.38 288.733 28.5 288.279 28.74C287.826 28.98 287.473 29.34 287.219 29.82C286.979 30.2867 286.859 30.88 286.859 31.6V37H284.359V26.32H286.739V29.2L286.319 28.32C286.693 27.64 287.233 27.12 287.939 26.76C288.659 26.3867 289.486 26.2 290.419 26.2Z" fill="black"/>
<path d="M375.508 37L369.388 23H372.208L377.668 35.66H376.048L381.568 23H384.168L378.068 37H375.508ZM391.185 37V34.84L391.045 34.38V30.6C391.045 29.8667 390.825 29.3 390.385 28.9C389.945 28.4867 389.278 28.28 388.385 28.28C387.785 28.28 387.192 28.3733 386.605 28.56C386.032 28.7467 385.545 29.0067 385.145 29.34L384.165 27.52C384.738 27.08 385.418 26.7533 386.205 26.54C387.005 26.3133 387.832 26.2 388.685 26.2C390.232 26.2 391.425 26.5733 392.265 27.32C393.118 28.0533 393.545 29.1933 393.545 30.74V37H391.185ZM387.825 37.14C387.025 37.14 386.325 37.0067 385.725 36.74C385.125 36.46 384.658 36.08 384.325 35.6C384.005 35.1067 383.845 34.5533 383.845 33.94C383.845 33.34 383.985 32.8 384.265 32.32C384.558 31.84 385.032 31.46 385.685 31.18C386.338 30.9 387.205 30.76 388.285 30.76H391.385V32.42H388.465C387.612 32.42 387.038 32.56 386.745 32.84C386.452 33.1067 386.305 33.44 386.305 33.84C386.305 34.2933 386.485 34.6533 386.845 34.92C387.205 35.1867 387.705 35.32 388.345 35.32C388.958 35.32 389.505 35.18 389.985 34.9C390.478 34.62 390.832 34.2067 391.045 33.66L391.465 35.16C391.225 35.7867 390.792 36.2733 390.165 36.62C389.552 36.9667 388.772 37.14 387.825 37.14ZM388.785 41.06C388.452 41.06 388.165 40.9533 387.925 40.74C387.698 40.5267 387.585 40.24 387.585 39.88C387.585 39.52 387.698 39.2267 387.925 39C388.165 38.7733 388.452 38.66 388.785 38.66C389.118 38.66 389.398 38.7733 389.625 39C389.865 39.2267 389.985 39.52 389.985 39.88C389.985 40.24 389.865 40.5267 389.625 40.74C389.398 40.9533 389.118 41.06 388.785 41.06ZM385.085 24.86L387.765 22.12H390.045L392.725 24.86H390.665L387.945 22.56H389.865L387.145 24.86H385.085ZM402.813 26.2C403.667 26.2 404.427 26.3667 405.093 26.7C405.773 27.0333 406.307 27.5467 406.693 28.24C407.08 28.92 407.273 29.8 407.273 30.88V37H404.773V31.2C404.773 30.2533 404.547 29.5467 404.093 29.08C403.653 28.6133 403.033 28.38 402.233 28.38C401.647 28.38 401.127 28.5 400.673 28.74C400.22 28.98 399.867 29.34 399.613 29.82C399.373 30.2867 399.253 30.88 399.253 31.6V37H396.753V26.32H399.133V29.2L398.713 28.32C399.087 27.64 399.627 27.12 400.333 26.76C401.053 26.3867 401.88 26.2 402.813 26.2ZM420.872 37.14C419.752 37.14 418.752 36.9067 417.872 36.44C417.005 35.96 416.325 35.3067 415.832 34.48C415.339 33.6533 415.092 32.7133 415.092 31.66C415.092 30.5933 415.339 29.6533 415.832 28.84C416.325 28.0133 417.005 27.3667 417.872 26.9C418.752 26.4333 419.752 26.2 420.872 26.2C421.912 26.2 422.825 26.4133 423.612 26.84C424.412 27.2533 425.019 27.8667 425.432 28.68L423.512 29.8C423.192 29.2933 422.799 28.92 422.332 28.68C421.879 28.44 421.385 28.32 420.852 28.32C420.239 28.32 419.685 28.4533 419.192 28.72C418.699 28.9867 418.312 29.3733 418.032 29.88C417.752 30.3733 417.612 30.9667 417.612 31.66C417.612 32.3533 417.752 32.9533 418.032 33.46C418.312 33.9533 418.699 34.3333 419.192 34.6C419.685 34.8667 420.239 35 420.852 35C421.385 35 421.879 34.88 422.332 34.64C422.799 34.4 423.192 34.0267 423.512 33.52L425.432 34.64C425.019 35.44 424.412 36.06 423.612 36.5C422.825 36.9267 421.912 37.14 420.872 37.14ZM433.555 26.2C434.409 26.2 435.169 26.3667 435.835 26.7C436.515 27.0333 437.049 27.5467 437.435 28.24C437.822 28.92 438.015 29.8 438.015 30.88V37H435.515V31.2C435.515 30.2533 435.289 29.5467 434.835 29.08C434.395 28.6133 433.775 28.38 432.975 28.38C432.389 28.38 431.869 28.5 431.415 28.74C430.962 28.98 430.609 29.34 430.355 29.82C430.115 30.2867 429.995 30.88 429.995 31.6V37H427.495V22.16H429.995V29.2L429.455 28.32C429.829 27.64 430.369 27.12 431.075 26.76C431.795 26.3867 432.622 26.2 433.555 26.2ZM445.707 37.14C444.8 37.14 444 36.9733 443.307 36.64C442.614 36.2933 442.074 35.7733 441.687 35.08C441.3 34.3733 441.107 33.4867 441.107 32.42V26.32H443.607V32.08C443.607 33.04 443.82 33.76 444.247 34.24C444.687 34.7067 445.307 34.94 446.107 34.94C446.694 34.94 447.2 34.82 447.627 34.58C448.067 34.34 448.407 33.98 448.647 33.5C448.9 33.02 449.027 32.4267 449.027 31.72V26.32H451.527V37H449.147V34.12L449.567 35C449.207 35.6933 448.68 36.2267 447.987 36.6C447.294 36.96 446.534 37.14 445.707 37.14ZM455.68 41.02C455.16 41.02 454.64 40.9333 454.12 40.76C453.6 40.5867 453.167 40.3467 452.82 40.04L453.82 38.2C454.073 38.4267 454.36 38.6067 454.68 38.74C455 38.8733 455.327 38.94 455.66 38.94C456.113 38.94 456.48 38.8267 456.76 38.6C457.04 38.3733 457.3 37.9933 457.54 37.46L458.16 36.06L458.36 35.76L462.4 26.32H464.8L459.8 37.86C459.467 38.66 459.093 39.2933 458.68 39.76C458.28 40.2267 457.827 40.5533 457.32 40.74C456.827 40.9267 456.28 41.02 455.68 41.02ZM457.88 37.38L453.06 26.32H455.66L459.58 35.54L457.88 37.38ZM471.09 37.14C469.903 37.14 468.863 36.9067 467.97 36.44C467.09 35.96 466.403 35.3067 465.91 34.48C465.43 33.6533 465.19 32.7133 465.19 31.66C465.19 30.5933 465.423 29.6533 465.89 28.84C466.37 28.0133 467.023 27.3667 467.85 26.9C468.69 26.4333 469.643 26.2 470.71 26.2C471.75 26.2 472.676 26.4267 473.49 26.88C474.303 27.3333 474.943 27.9733 475.41 28.8C475.876 29.6267 476.11 30.6 476.11 31.72C476.11 31.8267 476.103 31.9467 476.09 32.08C476.09 32.2133 476.083 32.34 476.07 32.46H467.17V30.8H474.75L473.77 31.32C473.783 30.7067 473.656 30.1667 473.39 29.7C473.123 29.2333 472.756 28.8667 472.29 28.6C471.836 28.3333 471.31 28.2 470.71 28.2C470.096 28.2 469.556 28.3333 469.09 28.6C468.636 28.8667 468.276 29.24 468.01 29.72C467.756 30.1867 467.63 30.74 467.63 31.38V31.78C467.63 32.42 467.776 32.9867 468.07 33.48C468.363 33.9733 468.776 34.3533 469.31 34.62C469.843 34.8867 470.456 35.02 471.15 35.02C471.75 35.02 472.29 34.9267 472.77 34.74C473.25 34.5533 473.676 34.26 474.05 33.86L475.39 35.4C474.91 35.96 474.303 36.3933 473.57 36.7C472.85 36.9933 472.023 37.14 471.09 37.14ZM466.83 24.86L469.53 22.72H471.77L474.47 24.86H472.39L469.71 23.16H471.59L468.91 24.86H466.83ZM473.87 23.4L473.23 22.72C473.496 22.5867 473.69 22.4467 473.81 22.3C473.943 22.14 474.01 21.9867 474.01 21.84C474.01 21.6533 473.943 21.5067 473.81 21.4C473.676 21.28 473.503 21.22 473.29 21.22C473.01 21.22 472.716 21.3 472.41 21.46L471.97 20.62C472.183 20.4733 472.423 20.3667 472.69 20.3C472.97 20.2333 473.243 20.2 473.51 20.2C474.03 20.2 474.436 20.34 474.73 20.62C475.036 20.9 475.19 21.26 475.19 21.7C475.19 22.0867 475.07 22.4333 474.83 22.74C474.59 23.0333 474.27 23.2533 473.87 23.4ZM484.571 26.2C485.424 26.2 486.184 26.3667 486.851 26.7C487.531 27.0333 488.064 27.5467 488.451 28.24C488.838 28.92 489.031 29.8 489.031 30.88V37H486.531V31.2C486.531 30.2533 486.304 29.5467 485.851 29.08C485.411 28.6133 484.791 28.38 483.991 28.38C483.404 28.38 482.884 28.5 482.431 28.74C481.978 28.98 481.624 29.34 481.371 29.82C481.131 30.2867 481.011 30.88 481.011 31.6V37H478.511V26.32H480.891V29.2L480.471 28.32C480.844 27.64 481.384 27.12 482.091 26.76C482.811 26.3867 483.638 26.2 484.571 26.2Z" fill="black"/>
<path d="M542.854 37V23H548.974C550.494 23 551.827 23.2933 552.974 23.88C554.121 24.4667 555.014 25.28 555.654 26.32C556.294 27.36 556.614 28.5867 556.614 30C556.614 31.4 556.294 32.6267 555.654 33.68C555.014 34.72 554.121 35.5333 552.974 36.12C551.827 36.7067 550.494 37 548.974 37H542.854ZM545.454 34.8H548.854C549.907 34.8 550.814 34.6 551.574 34.2C552.347 33.8 552.941 33.24 553.354 32.52C553.781 31.8 553.994 30.96 553.994 30C553.994 29.0267 553.781 28.1867 553.354 27.48C552.941 26.76 552.347 26.2 551.574 25.8C550.814 25.4 549.907 25.2 548.854 25.2H545.454V34.8ZM540.894 30.84V28.92H549.214V30.84H540.894ZM565.713 37V34.84L565.573 34.38V30.6C565.573 29.8667 565.353 29.3 564.913 28.9C564.473 28.4867 563.806 28.28 562.913 28.28C562.313 28.28 561.719 28.3733 561.133 28.56C560.559 28.7467 560.073 29.0067 559.673 29.34L558.693 27.52C559.266 27.08 559.946 26.7533 560.733 26.54C561.533 26.3133 562.359 26.2 563.213 26.2C564.759 26.2 565.953 26.5733 566.793 27.32C567.646 28.0533 568.073 29.1933 568.073 30.74V37H565.713ZM562.353 37.14C561.553 37.14 560.853 37.0067 560.253 36.74C559.653 36.46 559.186 36.08 558.853 35.6C558.533 35.1067 558.373 34.5533 558.373 33.94C558.373 33.34 558.513 32.8 558.793 32.32C559.086 31.84 559.559 31.46 560.213 31.18C560.866 30.9 561.733 30.76 562.813 30.76H565.913V32.42H562.993C562.139 32.42 561.566 32.56 561.273 32.84C560.979 33.1067 560.833 33.44 560.833 33.84C560.833 34.2933 561.013 34.6533 561.373 34.92C561.733 35.1867 562.233 35.32 562.873 35.32C563.486 35.32 564.033 35.18 564.513 34.9C565.006 34.62 565.359 34.2067 565.573 33.66L565.993 35.16C565.753 35.7867 565.319 36.2733 564.693 36.62C564.079 36.9667 563.299 37.14 562.353 37.14ZM577.341 26.2C578.194 26.2 578.954 26.3667 579.621 26.7C580.301 27.0333 580.834 27.5467 581.221 28.24C581.608 28.92 581.801 29.8 581.801 30.88V37H579.301V31.2C579.301 30.2533 579.074 29.5467 578.621 29.08C578.181 28.6133 577.561 28.38 576.761 28.38C576.174 28.38 575.654 28.5 575.201 28.74C574.748 28.98 574.394 29.34 574.141 29.82C573.901 30.2867 573.781 30.88 573.781 31.6V37H571.281V26.32H573.661V29.2L573.241 28.32C573.614 27.64 574.154 27.12 574.861 26.76C575.581 26.3867 576.408 26.2 577.341 26.2ZM589.832 41.02C588.845 41.02 587.879 40.8867 586.932 40.62C585.999 40.3667 585.232 39.9933 584.632 39.5L585.752 37.62C586.219 38.0067 586.805 38.3133 587.512 38.54C588.232 38.78 588.959 38.9 589.692 38.9C590.865 38.9 591.725 38.6267 592.272 38.08C592.819 37.5467 593.092 36.74 593.092 35.66V33.76L593.292 31.34L593.212 28.92V26.32H595.592V35.38C595.592 37.3133 595.099 38.7333 594.112 39.64C593.125 40.56 591.699 41.02 589.832 41.02ZM589.512 36.52C588.499 36.52 587.579 36.3067 586.752 35.88C585.939 35.44 585.292 34.8333 584.812 34.06C584.345 33.2867 584.112 32.38 584.112 31.34C584.112 30.3133 584.345 29.4133 584.812 28.64C585.292 27.8667 585.939 27.2667 586.752 26.84C587.579 26.4133 588.499 26.2 589.512 26.2C590.419 26.2 591.232 26.38 591.952 26.74C592.672 27.1 593.245 27.66 593.672 28.42C594.112 29.18 594.332 30.1533 594.332 31.34C594.332 32.5267 594.112 33.5067 593.672 34.28C593.245 35.04 592.672 35.6067 591.952 35.98C591.232 36.34 590.419 36.52 589.512 36.52ZM589.892 34.4C590.519 34.4 591.079 34.2733 591.572 34.02C592.065 33.7533 592.445 33.3933 592.712 32.94C592.992 32.4733 593.132 31.94 593.132 31.34C593.132 30.74 592.992 30.2133 592.712 29.76C592.445 29.2933 592.065 28.94 591.572 28.7C591.079 28.4467 590.519 28.32 589.892 28.32C589.265 28.32 588.699 28.4467 588.192 28.7C587.699 28.94 587.312 29.2933 587.032 29.76C586.765 30.2133 586.632 30.74 586.632 31.34C586.632 31.94 586.765 32.4733 587.032 32.94C587.312 33.3933 587.699 33.7533 588.192 34.02C588.699 34.2733 589.265 34.4 589.892 34.4ZM609.246 41.02C608.259 41.02 607.293 40.8867 606.346 40.62C605.413 40.3667 604.646 39.9933 604.046 39.5L605.166 37.62C605.633 38.0067 606.219 38.3133 606.926 38.54C607.646 38.78 608.373 38.9 609.106 38.9C610.279 38.9 611.139 38.6267 611.686 38.08C612.233 37.5467 612.506 36.74 612.506 35.66V33.76L612.706 31.34L612.626 28.92V26.32H615.006V35.38C615.006 37.3133 614.513 38.7333 613.526 39.64C612.539 40.56 611.113 41.02 609.246 41.02ZM608.926 36.52C607.913 36.52 606.993 36.3067 606.166 35.88C605.353 35.44 604.706 34.8333 604.226 34.06C603.759 33.2867 603.526 32.38 603.526 31.34C603.526 30.3133 603.759 29.4133 604.226 28.64C604.706 27.8667 605.353 27.2667 606.166 26.84C606.993 26.4133 607.913 26.2 608.926 26.2C609.833 26.2 610.646 26.38 611.366 26.74C612.086 27.1 612.659 27.66 613.086 28.42C613.526 29.18 613.746 30.1533 613.746 31.34C613.746 32.5267 613.526 33.5067 613.086 34.28C612.659 35.04 612.086 35.6067 611.366 35.98C610.646 36.34 609.833 36.52 608.926 36.52ZM609.306 34.4C609.933 34.4 610.493 34.2733 610.986 34.02C611.479 33.7533 611.859 33.3933 612.126 32.94C612.406 32.4733 612.546 31.94 612.546 31.34C612.546 30.74 612.406 30.2133 612.126 29.76C611.859 29.2933 611.479 28.94 610.986 28.7C610.493 28.4467 609.933 28.32 609.306 28.32C608.679 28.32 608.113 28.4467 607.606 28.7C607.113 28.94 606.726 29.2933 606.446 29.76C606.179 30.2133 606.046 30.74 606.046 31.34C606.046 31.94 606.179 32.4733 606.446 32.94C606.726 33.3933 607.113 33.7533 607.606 34.02C608.113 34.2733 608.679 34.4 609.306 34.4ZM618.293 37V26.32H620.793V37H618.293ZM619.553 24.56C619.086 24.56 618.699 24.4133 618.393 24.12C618.099 23.8267 617.953 23.4733 617.953 23.06C617.953 22.6333 618.099 22.28 618.393 22C618.699 21.7067 619.086 21.56 619.553 21.56C620.019 21.56 620.399 21.7 620.693 21.98C620.999 22.2467 621.153 22.5867 621.153 23C621.153 23.44 621.006 23.8133 620.713 24.12C620.419 24.4133 620.033 24.56 619.553 24.56ZM630.654 37V34.84L630.514 34.38V30.6C630.514 29.8667 630.294 29.3 629.854 28.9C629.414 28.4867 628.747 28.28 627.854 28.28C627.254 28.28 626.661 28.3733 626.074 28.56C625.501 28.7467 625.014 29.0067 624.614 29.34L623.634 27.52C624.207 27.08 624.887 26.7533 625.674 26.54C626.474 26.3133 627.301 26.2 628.154 26.2C629.701 26.2 630.894 26.5733 631.734 27.32C632.587 28.0533 633.014 29.1933 633.014 30.74V37H630.654ZM627.294 37.14C626.494 37.14 625.794 37.0067 625.194 36.74C624.594 36.46 624.127 36.08 623.794 35.6C623.474 35.1067 623.314 34.5533 623.314 33.94C623.314 33.34 623.454 32.8 623.734 32.32C624.027 31.84 624.501 31.46 625.154 31.18C625.807 30.9 626.674 30.76 627.754 30.76H630.854V32.42H627.934C627.081 32.42 626.507 32.56 626.214 32.84C625.921 33.1067 625.774 33.44 625.774 33.84C625.774 34.2933 625.954 34.6533 626.314 34.92C626.674 35.1867 627.174 35.32 627.814 35.32C628.427 35.32 628.974 35.18 629.454 34.9C629.947 34.62 630.301 34.2067 630.514 33.66L630.934 35.16C630.694 35.7867 630.261 36.2733 629.634 36.62C629.021 36.9667 628.241 37.14 627.294 37.14ZM641.042 37.14C639.949 37.14 638.975 36.9067 638.122 36.44C637.269 35.96 636.595 35.3067 636.102 34.48C635.609 33.6533 635.362 32.7133 635.362 31.66C635.362 30.5933 635.609 29.6533 636.102 28.84C636.595 28.0133 637.269 27.3667 638.122 26.9C638.975 26.4333 639.949 26.2 641.042 26.2C642.149 26.2 643.129 26.4333 643.982 26.9C644.849 27.3667 645.522 28.0067 646.002 28.82C646.495 29.6333 646.742 30.58 646.742 31.66C646.742 32.7133 646.495 33.6533 646.002 34.48C645.522 35.3067 644.849 35.96 643.982 36.44C643.129 36.9067 642.149 37.14 641.042 37.14ZM641.042 35C641.655 35 642.202 34.8667 642.682 34.6C643.162 34.3333 643.535 33.9467 643.802 33.44C644.082 32.9333 644.222 32.34 644.222 31.66C644.222 30.9667 644.082 30.3733 643.802 29.88C643.535 29.3733 643.162 28.9867 642.682 28.72C642.202 28.4533 641.662 28.32 641.062 28.32C640.449 28.32 639.902 28.4533 639.422 28.72C638.955 28.9867 638.582 29.3733 638.302 29.88C638.022 30.3733 637.882 30.9667 637.882 31.66C637.882 32.34 638.022 32.9333 638.302 33.44C638.582 33.9467 638.955 34.3333 639.422 34.6C639.902 34.8667 640.442 35 641.042 35Z" fill="black"/>
<path d="M712.769 23H715.369V37H712.769V23ZM705.529 37H702.929V23H705.529V37ZM712.969 31H705.309V28.78H712.969V31ZM723.68 37.14C722.587 37.14 721.614 36.9067 720.76 36.44C719.907 35.96 719.234 35.3067 718.74 34.48C718.247 33.6533 718 32.7133 718 31.66C718 30.5933 718.247 29.6533 718.74 28.84C719.234 28.0133 719.907 27.3667 720.76 26.9C721.614 26.4333 722.587 26.2 723.68 26.2C724.787 26.2 725.767 26.4333 726.62 26.9C727.487 27.3667 728.16 28.0067 728.64 28.82C729.134 29.6333 729.38 30.58 729.38 31.66C729.38 32.7133 729.134 33.6533 728.64 34.48C728.16 35.3067 727.487 35.96 726.62 36.44C725.767 36.9067 724.787 37.14 723.68 37.14ZM723.68 35C724.294 35 724.84 34.8667 725.32 34.6C725.8 34.3333 726.174 33.9467 726.44 33.44C726.72 32.9333 726.86 32.34 726.86 31.66C726.86 30.9667 726.72 30.3733 726.44 29.88C726.174 29.3733 725.8 28.9867 725.32 28.72C724.84 28.4533 724.3 28.32 723.7 28.32C723.087 28.32 722.54 28.4533 722.06 28.72C721.594 28.9867 721.22 29.3733 720.94 29.88C720.66 30.3733 720.52 30.9667 720.52 31.66C720.52 32.34 720.66 32.9333 720.94 33.44C721.22 33.9467 721.594 34.3333 722.06 34.6C722.54 34.8667 723.08 35 723.68 35ZM738.214 37V34.84L738.074 34.38V30.6C738.074 29.8667 737.854 29.3 737.414 28.9C736.974 28.4867 736.307 28.28 735.414 28.28C734.814 28.28 734.221 28.3733 733.634 28.56C733.061 28.7467 732.574 29.0067 732.174 29.34L731.194 27.52C731.767 27.08 732.447 26.7533 733.234 26.54C734.034 26.3133 734.861 26.2 735.714 26.2C737.261 26.2 738.454 26.5733 739.294 27.32C740.147 28.0533 740.574 29.1933 740.574 30.74V37H738.214ZM734.854 37.14C734.054 37.14 733.354 37.0067 732.754 36.74C732.154 36.46 731.687 36.08 731.354 35.6C731.034 35.1067 730.874 34.5533 730.874 33.94C730.874 33.34 731.014 32.8 731.294 32.32C731.587 31.84 732.061 31.46 732.714 31.18C733.367 30.9 734.234 30.76 735.314 30.76H738.414V32.42H735.494C734.641 32.42 734.067 32.56 733.774 32.84C733.481 33.1067 733.334 33.44 733.334 33.84C733.334 34.2933 733.514 34.6533 733.874 34.92C734.234 35.1867 734.734 35.32 735.374 35.32C735.987 35.32 736.534 35.18 737.014 34.9C737.507 34.62 737.861 34.2067 738.074 33.66L738.494 35.16C738.254 35.7867 737.821 36.2733 737.194 36.62C736.581 36.9667 735.801 37.14 734.854 37.14ZM735.454 24.86L731.974 22.12H734.914L737.614 24.86H735.454ZM749.843 26.2C750.696 26.2 751.456 26.3667 752.123 26.7C752.803 27.0333 753.336 27.5467 753.723 28.24C754.109 28.92 754.303 29.8 754.303 30.88V37H751.803V31.2C751.803 30.2533 751.576 29.5467 751.123 29.08C750.683 28.6133 750.063 28.38 749.263 28.38C748.676 28.38 748.156 28.5 747.703 28.74C747.249 28.98 746.896 29.34 746.643 29.82C746.403 30.2867 746.283 30.88 746.283 31.6V37H743.783V26.32H746.163V29.2L745.743 28.32C746.116 27.64 746.656 27.12 747.363 26.76C748.083 26.3867 748.909 26.2 749.843 26.2ZM767.021 37.14C765.848 37.14 764.941 36.84 764.301 36.24C763.661 35.6267 763.341 34.7267 763.341 33.54V23.96H765.841V33.48C765.841 33.9867 765.968 34.38 766.221 34.66C766.488 34.94 766.855 35.08 767.321 35.08C767.881 35.08 768.348 34.9333 768.721 34.64L769.421 36.42C769.128 36.66 768.768 36.84 768.341 36.96C767.915 37.08 767.475 37.14 767.021 37.14ZM761.581 28.4V26.4H768.701V28.4H761.581ZM777.538 26.2C778.391 26.2 779.151 26.3667 779.818 26.7C780.498 27.0333 781.031 27.5467 781.418 28.24C781.805 28.92 781.998 29.8 781.998 30.88V37H779.498V31.2C779.498 30.2533 779.271 29.5467 778.818 29.08C778.378 28.6133 777.758 28.38 776.958 28.38C776.371 28.38 775.851 28.5 775.398 28.74C774.945 28.98 774.591 29.34 774.338 29.82C774.098 30.2867 773.978 30.88 773.978 31.6V37H771.478V22.16H773.978V29.2L773.438 28.32C773.811 27.64 774.351 27.12 775.058 26.76C775.778 26.3867 776.605 26.2 777.538 26.2ZM791.749 37V34.84L791.609 34.38V30.6C791.609 29.8667 791.389 29.3 790.949 28.9C790.509 28.4867 789.843 28.28 788.949 28.28C788.349 28.28 787.756 28.3733 787.169 28.56C786.596 28.7467 786.109 29.0067 785.709 29.34L784.729 27.52C785.303 27.08 785.983 26.7533 786.769 26.54C787.569 26.3133 788.396 26.2 789.249 26.2C790.796 26.2 791.989 26.5733 792.829 27.32C793.683 28.0533 794.109 29.1933 794.109 30.74V37H791.749ZM788.389 37.14C787.589 37.14 786.889 37.0067 786.289 36.74C785.689 36.46 785.223 36.08 784.889 35.6C784.569 35.1067 784.409 34.5533 784.409 33.94C784.409 33.34 784.549 32.8 784.829 32.32C785.123 31.84 785.596 31.46 786.249 31.18C786.903 30.9 787.769 30.76 788.849 30.76H791.949V32.42H789.029C788.176 32.42 787.603 32.56 787.309 32.84C787.016 33.1067 786.869 33.44 786.869 33.84C786.869 34.2933 787.049 34.6533 787.409 34.92C787.769 35.1867 788.269 35.32 788.909 35.32C789.523 35.32 790.069 35.18 790.549 34.9C791.043 34.62 791.396 34.2067 791.609 33.66L792.029 35.16C791.789 35.7867 791.356 36.2733 790.729 36.62C790.116 36.9667 789.336 37.14 788.389 37.14ZM788.989 24.86L785.509 22.12H788.449L791.149 24.86H788.989ZM803.378 26.2C804.231 26.2 804.991 26.3667 805.658 26.7C806.338 27.0333 806.871 27.5467 807.258 28.24C807.644 28.92 807.838 29.8 807.838 30.88V37H805.338V31.2C805.338 30.2533 805.111 29.5467 804.658 29.08C804.218 28.6133 803.598 28.38 802.798 28.38C802.211 28.38 801.691 28.5 801.238 28.74C800.784 28.98 800.431 29.34 800.178 29.82C799.938 30.2867 799.818 30.88 799.818 31.6V37H797.318V26.32H799.698V29.2L799.278 28.32C799.651 27.64 800.191 27.12 800.898 26.76C801.618 26.3867 802.444 26.2 803.378 26.2ZM817.069 26.2C817.922 26.2 818.682 26.3667 819.349 26.7C820.029 27.0333 820.562 27.5467 820.949 28.24C821.336 28.92 821.529 29.8 821.529 30.88V37H819.029V31.2C819.029 30.2533 818.802 29.5467 818.349 29.08C817.909 28.6133 817.289 28.38 816.489 28.38C815.902 28.38 815.382 28.5 814.929 28.74C814.476 28.98 814.122 29.34 813.869 29.82C813.629 30.2867 813.509 30.88 813.509 31.6V37H811.009V22.16H813.509V29.2L812.969 28.32C813.342 27.64 813.882 27.12 814.589 26.76C815.309 26.3867 816.136 26.2 817.069 26.2Z" fill="black"/>
<path d="M891.543 37V23H897.663C899.183 23 900.517 23.2933 901.663 23.88C902.81 24.4667 903.703 25.28 904.343 26.32C904.983 27.36 905.303 28.5867 905.303 30C905.303 31.4 904.983 32.6267 904.343 33.68C903.703 34.72 902.81 35.5333 901.663 36.12C900.517 36.7067 899.183 37 897.663 37H891.543ZM894.143 34.8H897.543C898.597 34.8 899.503 34.6 900.263 34.2C901.037 33.8 901.63 33.24 902.043 32.52C902.47 31.8 902.683 30.96 902.683 30C902.683 29.0267 902.47 28.1867 902.043 27.48C901.63 26.76 901.037 26.2 900.263 25.8C899.503 25.4 898.597 25.2 897.543 25.2H894.143V34.8ZM889.583 30.84V28.92H897.903V30.84H889.583ZM914.402 37V34.84L914.262 34.38V30.6C914.262 29.8667 914.042 29.3 913.602 28.9C913.162 28.4867 912.495 28.28 911.602 28.28C911.002 28.28 910.409 28.3733 909.822 28.56C909.249 28.7467 908.762 29.0067 908.362 29.34L907.382 27.52C907.955 27.08 908.635 26.7533 909.422 26.54C910.222 26.3133 911.049 26.2 911.902 26.2C913.449 26.2 914.642 26.5733 915.482 27.32C916.335 28.0533 916.762 29.1933 916.762 30.74V37H914.402ZM911.042 37.14C910.242 37.14 909.542 37.0067 908.942 36.74C908.342 36.46 907.875 36.08 907.542 35.6C907.222 35.1067 907.062 34.5533 907.062 33.94C907.062 33.34 907.202 32.8 907.482 32.32C907.775 31.84 908.249 31.46 908.902 31.18C909.555 30.9 910.422 30.76 911.502 30.76H914.602V32.42H911.682C910.829 32.42 910.255 32.56 909.962 32.84C909.669 33.1067 909.522 33.44 909.522 33.84C909.522 34.2933 909.702 34.6533 910.062 34.92C910.422 35.1867 910.922 35.32 911.562 35.32C912.175 35.32 912.722 35.18 913.202 34.9C913.695 34.62 914.049 34.2067 914.262 33.66L914.682 35.16C914.442 35.7867 914.009 36.2733 913.382 36.62C912.769 36.9667 911.989 37.14 911.042 37.14ZM913.562 24.86C913.242 24.86 912.949 24.8 912.682 24.68C912.429 24.5467 912.195 24.3933 911.982 24.22C911.782 24.0333 911.589 23.8733 911.402 23.74C911.215 23.6067 911.029 23.54 910.842 23.54C910.562 23.54 910.335 23.6467 910.162 23.86C909.989 24.0733 909.889 24.3667 909.862 24.74H908.522C908.549 23.9133 908.749 23.26 909.122 22.78C909.509 22.3 910.029 22.06 910.682 22.06C911.002 22.06 911.295 22.1267 911.562 22.26C911.829 22.3933 912.062 22.5467 912.262 22.72C912.475 22.8933 912.675 23.0467 912.862 23.18C913.049 23.3133 913.229 23.38 913.402 23.38C913.682 23.38 913.909 23.28 914.082 23.08C914.269 22.88 914.369 22.6 914.382 22.24H915.722C915.709 23.0133 915.509 23.6467 915.122 24.14C914.735 24.62 914.215 24.86 913.562 24.86ZM931.558 26.2C932.411 26.2 933.171 26.3667 933.838 26.7C934.518 27.0333 935.051 27.5467 935.438 28.24C935.825 28.92 936.018 29.8 936.018 30.88V37H933.518V31.2C933.518 30.2533 933.291 29.5467 932.838 29.08C932.398 28.6133 931.778 28.38 930.978 28.38C930.391 28.38 929.871 28.5 929.418 28.74C928.965 28.98 928.611 29.34 928.358 29.82C928.118 30.2867 927.998 30.88 927.998 31.6V37H925.498V22.16H927.998V29.2L927.458 28.32C927.831 27.64 928.371 27.12 929.078 26.76C929.798 26.3867 930.625 26.2 931.558 26.2ZM943.709 37.14C942.803 37.14 942.003 36.9733 941.309 36.64C940.616 36.2933 940.076 35.7733 939.689 35.08C939.303 34.3733 939.109 33.4867 939.109 32.42V26.32H941.609V32.08C941.609 33.04 941.823 33.76 942.249 34.24C942.689 34.7067 943.309 34.94 944.109 34.94C944.696 34.94 945.203 34.82 945.629 34.58C946.069 34.34 946.409 33.98 946.649 33.5C946.903 33.02 947.029 32.4267 947.029 31.72V26.32H949.529V37H947.149V34.12L947.569 35C947.209 35.6933 946.683 36.2267 945.989 36.6C945.296 36.96 944.536 37.14 943.709 37.14ZM944.809 25.06L943.989 24.14C944.376 23.9533 944.649 23.76 944.809 23.56C944.983 23.3467 945.069 23.1133 945.069 22.86C945.069 22.5933 944.976 22.38 944.789 22.22C944.603 22.06 944.363 21.98 944.069 21.98C943.656 21.98 943.256 22.1067 942.869 22.36L942.329 21.26C942.609 21.06 942.923 20.9067 943.269 20.8C943.616 20.6933 943.969 20.64 944.329 20.64C944.983 20.64 945.509 20.8267 945.909 21.2C946.323 21.56 946.529 22.04 946.529 22.64C946.529 23.1867 946.389 23.66 946.109 24.06C945.829 24.46 945.396 24.7933 944.809 25.06ZM953.683 41.02C953.163 41.02 952.643 40.9333 952.123 40.76C951.603 40.5867 951.169 40.3467 950.823 40.04L951.823 38.2C952.076 38.4267 952.363 38.6067 952.683 38.74C953.003 38.8733 953.329 38.94 953.663 38.94C954.116 38.94 954.483 38.8267 954.763 38.6C955.043 38.3733 955.303 37.9933 955.543 37.46L956.163 36.06L956.363 35.76L960.403 26.32H962.803L957.803 37.86C957.469 38.66 957.096 39.2933 956.683 39.76C956.283 40.2267 955.829 40.5533 955.323 40.74C954.829 40.9267 954.283 41.02 953.683 41.02ZM955.883 37.38L951.063 26.32H953.663L957.583 35.54L955.883 37.38Z" fill="black"/>
</svg>
